<?xml version="1.0" encoding="utf-8"?>
<!-- Generator: Adobe Illustrator 19.0.0, SVG Export Plug-In . SVG Version: 6.00 Build 0)  -->
<svg version="1.1" id="Capa_1" xmlns="http://www.w3.org/2000/svg" xmlns:xlink="http://www.w3.org/1999/xlink" x="0px" y="0px"
	 viewBox="533 110 219.5 254" style="enable-background:new 533 110 219.5 254;" xml:space="preserve">
<style type="text/css">
	.st0{fill:#003399;}
</style>
<path class="st0" d="M643.5,160.6c1.5-3.5,0.5-5,1.2-6.3c0.5-1.1,1.3-2.7,1.4-4.8c1.5,1,2.3,3,3.4,4.5c1-1.7,1.5-3.5,1.5-5.4
	l2.2,4.4c0.6-2.7,1.9-4.9,0.4-7.9c5.9,5.5,2.4,11.1,6.5,15.2c-4.7,1-6.1-2-6.9-6.1c-0.3,3.2,2.1,5,0.7,7.9c-1.5-0.8-4.3-0.4-5.1-6.3
	c-0.2,3.3-0.9,6.4-2.6,8.6C645.1,163.8,643.8,163.2,643.5,160.6z"/>
<path class="st0" d="M642.6,124.6c-8.3-0.5-11.9,2.2-14.7,5.5c1.9-0.2,3.1-0.2,4.7,0.1c2.5-5.4,9-1.8,12.4-2.4
	c1.8,0,3.1-0.2,4.1-1.1l0.1-0.4c-1,0.2-2.1,0.3-3.2,0.4c1.3-0.3,2.5-0.8,3.6-1.3c0.8-0.8,0.7-1.4-0.1-1.8
	C647.3,123,645.1,123.4,642.6,124.6z M645.8,125.3c0.2,0,0.4,0.1,0.4,0.3c0,0.1-0.2,0.3-0.4,0.3c-0.3,0-0.5-0.1-0.5-0.3l0,0h0.1
	c0.1,0,0.2,0,0.2-0.1s-0.1-0.1-0.2-0.1C645.6,125.4,645.6,125.3,645.8,125.3z"/>
<path class="st0" d="M631,143c-0.1,4,3.8,6.3-0.2,11.9l3.1-2.2c-2.1,3.6-3.5,7.3-6.6,12c3.1-2.9,4.6-2.5,7.3-6.7
	c-2.4,4.6-6.3,7.4-7.4,14.6C633.6,165,648.5,157.2,631,143z"/>
<path class="st0" d="M646.1,165.3c0.3-0.8,2.8-4.5,2.9-5.8c0.4,1.3,1.3,2.3,2.6,3.1l0.4-0.5c1.3,0.5,2.3,1.1,2.6,2.3
	c0.6-1.7,1-2.7,0.4-4.9c5.9,3.4,2.4,6.9,6.5,9.4c-4.6,0.6-6.1-1.2-6.9-3.8c-0.3,2,1.8,4.1,0.5,5.8c-1.5-0.5-4.1-1.2-4.9-4.9
	c-0.6,2.1,1.5,4.6-0.5,6.4C646.7,171.8,645.4,167.1,646.1,165.3z"/>
<path class="st0" d="M643.1,162.2c-1.5,2.6-3.4,4.9-5.6,6.9c0.2,2.4,1.1,3.8,2.7,4.4c0.8-1.9,2.1-2.3,1.8-4.7
	c0.6,3.5,1.8,2.8,2.3,4.2c1.2-0.8,1.8-2,2-3.3c-0.8-1.5-1-3.3-0.7-4.3C644.6,164.7,643.4,163.2,643.1,162.2z"/>
<path class="st0" d="M656.4,168.6c1,0.7,2.1,0.9,3.2,1.1c2.5,4.8-0.3,7.8,0.3,11.6c-2.8-0.4-2.4-4-3.6-6c0,2.5-0.7,4.6-2,6.4
	c-1.7-0.8-2.8-2.7-3.5-5.3c0,2.5-0.4,4.5-1.5,5.8c-1.4-0.8-2.3-2.7-2.8-5.3c0.2,1.8-0.4,3.6-1.5,5.2c-1.1-0.7-1.9-2.2-2.3-4.3
	c-0.3,2-1.1,3.2-2.4,4.1c-1.4-0.5-2.1-2.1-2.7-4.3c-0.3,1.9-2.4,4.8-5,6.1c-1.7-0.6-2.5-1.8-2.6-3.8c1.4-4.1,4.6-7.6,7-9.8
	c0.5,2.5,1.4,4,3.2,4.5l2-3.3c0.4,1.2,1.5,1.6,2,2.7c1.3-0.9,2.1-2.1,2.6-3.5c0.6,1.3,1.4,2.3,2.6,2.9c1.9-0.8,2.1-2.4,1.9-4.1
	c1.2,1.6,2.8,1.8,4.3,2.6C656.8,170.9,656.1,169.7,656.4,168.6z"/>
<path class="st0" d="M660.6,179.3c0.7-3.3,0.9-6.5-0.4-9.8c3.5,2.7,1.1,8.2,6.5,11.1C664.6,182,662.5,182,660.6,179.3z"/>
<path class="st0" d="M628.7,182.1c1.6-10.2,9.9-12.6,13.2-20.4c4-6.4-0.2-11.5-4.4-16.3c-1.8-2.1-3.9-5.5-5.9-7.1
	c-1.2-1-2.9-1.8-4.2-0.3c0.6,2,2.4,2.5,3.6,3.7c5.6,5.6,11.7,11.7,7.9,19.3c-1.9,5.7-10.6,8.9-13.2,17.5
	C626.8,179.8,627.6,181,628.7,182.1z"/>
<path class="st0" d="M633.8,131.1c-7.6-1.5-10.8,0.8-8,8.2c1.7-5.4,5.8-2.8,9.3,1.8c3.8,5,8.4,8.2,9.4,12c0.9-1.3,1.4-3,0.7-5.9
	c1.4,2.4,3.3,3.2,4,5.6c1.2-1.6,1.2-3.4,0.6-6.7c1.4,1.4,2.7,2.8,3.1,5.7c0.9-2.7,1-5.4-0.7-8.1c1.9,1.1,3.5,2.9,5.8,3.3
	c-1.6-2.4-2.4-5.4-4.8-7.2l5.8,0.5c-6-2.2-6.9-9.1-15-8.3C640.8,129.3,637.4,128.9,633.8,131.1z M641.8,135.1l0.6,0.2
	c-0.4,1.7,0.8,3.1,2.1,4.2C642.6,138.1,641.6,136.8,641.8,135.1z M635.3,133.7c-0.4-0.2-0.8,0.1-0.6,0.8c0.2,0.6,0.7,0.9,1,1.3
	C634.8,134.3,635.8,134.1,635.3,133.7z M643.1,135.6c0.5,0,0.9,0,1.2,0c-0.3,0.3-0.6,0.7-0.6,1.1c0,0.7,0.6,1.3,1.2,1.3
	c0.7,0,1.3-0.6,1.3-1.3c0-0.2-0.1-0.4-0.1-0.5c1.1,0.7,1.6,1.7,2.1,2.9C646.5,138.2,643.2,139.3,643.1,135.6z M644.3,136.9
	c0.7,0,0.9,0.3,1,0.7C644.9,137.4,644.3,137.6,644.3,136.9z"/>
<path class="st0" d="M587,277.9v-74.1c7.2,2.7,14.8,4.3,22.4,4.4c0.7,2.2,2.9,3.9,5.4,3.9c2.6,0,4.8-1.7,5.5-4c1,1,2.5,1.7,4.1,1.7
	c2.7,0,4.9-1.7,5.5-4.1c0.9,1.2,2.4,2,4.2,2c2.7,0,4.9-1.9,4.9-4.2c0-0.7-0.2-1.4-0.5-2c1.9-1,3.8-2.1,5.7-3.3
	c2.2,1.2,4.4,2.2,6.6,3.1c-0.4,0.6-0.7,1.3-0.7,2.1c0,2.3,2.2,4.2,4.9,4.2c1.8,0,3.3-0.8,4.2-2c0.6,2.4,2.8,4.1,5.5,4.1
	c1.6,0,3.1-0.7,4.1-1.7c0.6,2.3,2.8,4,5.4,4c2.7,0,5-1.8,5.5-4.2c7.4,0,14.8-1.4,22.3-4v73.6c-1.9,28.1-52.7,15-58,24.7
	C640.1,292.6,589.5,307.4,587,277.9z M695.2,210.4c-16.6,5.3-32.6,3.2-48.1-5l0.5,44.5h47.5v-39.5H695.2z M695.1,254.4h-47.4v40.3
	c13.8-5.6,39.8,0.6,46.2-15.2C696.1,270.7,694.7,263.2,695.1,254.4z M593.7,210.4c16.6,5.3,32.6,3.2,48.1-5l-0.5,44.5h-47.5v-39.5
	H593.7z M594,254.4h47.5v40.3c-13.8-5.6-39.8,0.6-46.2-15.2C592.9,270.7,594.2,260.8,594,254.4z"/>
<path class="st0" d="M616,212.9c0.7,1.1,1.7,0.7,1.8,0c-0.3-3,0.7-6.3-0.8-8.7c-1.6-1.8-4.5-0.8-4.6,1.4
	C612.5,208.4,614.8,210.4,616,212.9z"/>
<path class="st0" d="M625.6,210.5c0.7,1.1,1.7,0.7,1.8,0c-0.3-3.1,0.7-6.3-0.8-8.8c-1.6-1.8-4.6-0.8-4.6,1.4
	C622.1,206.1,624.4,208.1,625.6,210.5z"/>
<path class="st0" d="M635.1,207.9c0.6,0.9,1.5,0.6,1.6,0c-0.2-2.4,0.6-4.9-0.7-6.9c-1.4-1.4-3.9-0.6-4,1.1
	C632.1,204.5,634.1,206,635.1,207.9z"/>
<path class="st0" d="M618.5,200.7c-1.2-1-2.1-1.4-3.6-1.2c2.2-2,5.3-3,12.4-3c3.8,0,9,1.4,14.5,1c-1.1,1.1-2.4,1.6-2.9,2
	c-2.8-2.5-7-2.9-9.4,0.1C627.4,196,620.3,196.3,618.5,200.7z"/>
<path class="st0" d="M670.5,200.7c1.2-1,2.1-1.4,3.7-1.2c-2.2-2-5.4-3-12.4-3c-3.8,0-9,1.4-14.5,1c1.1,1.1,2.4,1.6,2.9,2
	c2.8-2.5,7-2.9,9.4,0.1C661.7,196,668.7,196.3,670.5,200.7z"/>
<path class="st0" d="M673.4,212.9c-0.7,1.1-1.7,0.7-1.8,0c0.3-3-0.7-6.3,0.8-8.7c1.6-1.8,4.5-0.8,4.6,1.4
	C676.9,208.4,674.6,210.4,673.4,212.9z"/>
<path class="st0" d="M663.8,210.5c-0.7,1.1-1.7,0.7-1.8,0c0.3-3.1-0.7-6.3,0.8-8.8c1.6-1.8,4.6-0.8,4.6,1.4
	C667.3,206.1,665,208.1,663.8,210.5z"/>
<path class="st0" d="M654.3,207.9c-0.6,0.9-1.5,0.6-1.6,0c0.2-2.4-0.6-4.9,0.7-6.9c1.4-1.4,3.9-0.6,4,1.1
	C657.3,204.5,655.3,206,654.3,207.9z"/>
<path class="st0" d="M640.1,246.9c-2-0.1-6,0.3-8.2-0.2c-2.4-0.5-3.8-0.8-4.6-0.3c-2.5,1-3.6-0.5-5.9-0.7c-4.3,1.2-2.8-1-4.6-0.9
	c-4.3,1-3.3-1-5.9-1.2c-3.5,1.8-3.8-1.2-5.4-0.9c-7.6,4.1-7.5-1-10.5-0.6v6.7h45.2v-1.9H640.1z"/>
<path class="st0" d="M599.8,239.3c-1.6-0.5-1.2-2.2-4.9-1.6v-3.9c5.8-0.5,10.9-9.6,14.7-13.5c1.6-0.9,2.3,3.7,4.8,5.7
	c1.3,0.8,2.4,2.1,4,2.5c-1.1-1.6-3.2-2.6-4-4.4l2.5-1.8l3.1-2.9c1.3-1.6,6.2,6.7,9.3,8.8c2.1,1.5,5.8,1.8,8.7,2.7
	c-2.2,0.6-7.4-1.2-8.2-0.3c-0.5,0.3-0.5,0.6,0.5,1c2.4,1.1,4.7-0.4,4.4,0.7c-0.5,1.6-4.9,0.5-3.7,2c4.2,2.8,4.4,2.6,9.2,3.4v2.7
	c-1.5,0.2-3-0.3-4.5-1.6c-1.7-2.2-5.9-1-7.2-2.1c-2.2-1.5-5-0.7-6.2-0.8c-0.4-0.1-0.1-0.8-0.6-1.1c-0.7-0.3-1.3,0.1-2-0.2
	c-1.2-0.6,0.3-1.8-0.3-1.9c-1,0-1,1.2-0.8,2.3c0.5,1,1.4,0,2.4,0.7c0.3,0.4-0.5,0.9,0.3,1.2c2,0.1,3.8-0.5,5.5,0.7
	c2.5,1.4-0.4,1.7,0,2.9c3,2.2,6.7,1,9.4,2.4c-0.8,0.1-1.5,0.7-2.5,0.3c-1.5-0.5-2.3,0.2-3.3-0.2c-1.4-0.6-2.2,0-3.2-0.5
	c-1.3-0.7-2.5,0.2-3.6-0.3c-0.7-0.3-1-1.1-2-0.9c-1.6,0.1-2-0.8-3.2-0.8c-1.1,0-1.3-1-2.4-0.5c-1.7,0.5-2.7-0.9-4.1-0.5
	c-2.7,0.4-3.7-1.6-5.2-1.1C604.3,239.7,602,239,599.8,239.3z"/>
<path class="st0" d="M617.5,220.9c-1.2,0.9-2.2,2-3.7,2.7c-0.5-0.5-0.9-1.1-1.3-1.7l1.8-2.4c0.4-0.5,0.9-0.5,1.5,0L617.5,220.9z"/>
<path class="st0" d="M621.3,310.6c-0.2-0.2-0.3-0.6-0.2-0.9l0.5-2.5c0.2,0.1,0.5,0.1,0.7-0.2c-0.3-0.3-0.4-0.7-0.4-1.2l0.1-0.5
	l1.5,0.3c0.3,0.1,0.7,0.2,1.1,0.5c-0.5-0.5-0.8-1.2-0.7-1.8l-5.3-1.2c-0.2,0.6-0.7,1.1-1.4,1.4c0.4-0.1,0.9,0,1.2,0l1.5,0.3
	l-0.1,0.5c-0.3,0.4-0.5,0.7-0.9,0.9c0.1,0.3,0.3,0.5,0.5,0.5l-0.5,2.5c-0.1,0.3-0.3,0.7-0.6,0.7L621.3,310.6z M625.2,304.6
	c0.2,0.2,0.3,0.6,0.3,0.9l-0.2,1.1c-0.2,0.5-0.5,0.8-0.8,0.9c0.1,0.3,0.3,0.5,0.6,0.5l-0.5,2.5c-0.1,0.3-0.3,0.7-0.5,0.8l5,0.9
	c0.1-0.6,0.7-1.1,1.3-1.4c-0.5,0.1-0.9,0.1-1.2,0l-2.4-0.4l0.3-1.9c0.2,0.1,0.5,0,0.7-0.2c-0.3-0.3-0.4-0.7-0.5-1.2l0.2-1.1
	c0.1-0.4,0.3-0.7,0.5-0.7L625.2,304.6z M633.3,312.6c-0.3-0.2-0.6-0.4-0.5-0.9c0,0,0.1-0.1,0.1-0.3l0.2-0.4l2.1,0.2
	c0.1,0.3,0.1,0.5,0.1,0.8c0.1,0.5-0.3,0.6-0.6,0.8l3.2,0.3c-0.3-0.4-0.3-0.5-0.5-0.9l-0.7-2.5c0.2-0.1,0.3-0.2,0.4-0.5
	c-0.3-0.1-0.5-0.3-0.7-0.6L636,307c-0.1-0.4,0-0.6,0.2-0.8l-3.1-0.3c0.1,0.3,0.1,0.5,0,0.9l-0.8,1.5c-0.3,0.3-0.5,0.4-0.8,0.5
	c0,0.3,0.1,0.4,0.3,0.5l-1.2,2.3c-0.2,0.4-0.3,0.5-0.7,0.8L633.3,312.6z M633.7,309.6c0.3-0.6,0.5-1.2,0.8-1.8
	c0.1,0.6,0.3,1.3,0.4,2L633.7,309.6z M641.8,306.5c0.2,0.1,0.4,0.5,0.4,0.8l-0.6,0.9l-0.6-0.9c0-0.3,0.1-0.7,0.4-0.8l-3.4-0.1
	c0.3,0.1,0.5,0.3,0.7,0.5l1.4,2.3c-0.1,0.1-0.2,0.2-0.4,0.2c0.1,0.4,0.3,0.5,0.7,0.5l-1.8,2.7c-0.2,0.2-0.4,0.3-0.7,0.4h3.4
	c-0.3-0.1-0.4-0.5-0.4-0.8l0.6-0.9l0.6,0.9c0,0.3-0.2,0.7-0.4,0.9h3.4c-0.3-0.1-0.5-0.3-0.7-0.5l-1.7-2.7c0.3,0,0.5-0.2,0.7-0.5
	c-0.2-0.1-0.3-0.2-0.4-0.2l1.5-2.3c0.2-0.2,0.4-0.4,0.7-0.5L641.8,306.5z M647.7,309.1c0.1-0.8,0.5-1.2,1.2-1.2
	c0.5,0,0.8,0.1,1.1,0.5c-0.1,0.3-0.2,0.6-0.4,0.7l2.8-0.1c-0.2-0.1-0.4-0.3-0.5-0.7c-0.6-1.5-1.6-2-3.1-1.9
	c-1.6,0.1-2.8,0.9-3.1,2.5c-0.1,0.5-0.3,0.7-0.6,1c0.1,0.2,0.3,0.3,0.5,0.3c0.1,0.8,0.3,1.4,0.6,1.8c0.8,1.1,1.7,1.3,3,1.2
	c1.5-0.1,2.6-0.7,2.9-2.4c0.1-0.3,0.2-0.5,0.4-0.6l-1.3,0.1c-0.5,0-0.9,0.3-1,0.7c-0.2,0.5-0.6,0.7-1.1,0.7
	c-1.1,0.1-1.3-0.8-1.4-1.7c0.2,0,0.4-0.2,0.5-0.4C648.1,309.5,647.9,309.3,647.7,309.1z M656,312.6c-0.3-0.1-0.7-0.2-0.7-0.8
	c0,0,0-0.1,0-0.3l0.1-0.4l2.1-0.3c0.1,0.3,0.2,0.5,0.3,0.7c0.1,0.5-0.2,0.7-0.5,0.9l3.2-0.4c-0.4-0.3-0.5-0.3-0.7-0.7l-1.2-2.3
	c0.1-0.1,0.2-0.3,0.3-0.5c-0.3-0.1-0.5-0.2-0.8-0.5l-0.8-1.5c-0.2-0.3-0.1-0.6,0-0.8l-3.1,0.4c0.2,0.2,0.3,0.5,0.2,0.8l-0.4,1.7
	c-0.2,0.3-0.4,0.5-0.7,0.6c0.1,0.3,0.2,0.4,0.4,0.5l-0.6,2.5c-0.1,0.5-0.2,0.5-0.5,0.9L656,312.6z M655.8,309.5
	c0.1-0.6,0.2-1.3,0.3-2c0.3,0.6,0.5,1.2,0.8,1.8L655.8,309.5z M659.7,305.3c0.3,0.1,0.5,0.5,0.5,0.8l0.2,1.1c0,0.5-0.2,0.9-0.4,1.1
	c0.2,0.3,0.5,0.4,0.7,0.3l0.5,2.5c0.1,0.3,0,0.7-0.3,0.9l5-0.9c-0.1-0.7,0.2-1.3,0.7-1.8c-0.4,0.3-0.9,0.4-1.1,0.4l-2.4,0.5
	l-0.4-1.9c0.3,0,0.5-0.2,0.6-0.5c-0.3-0.2-0.6-0.5-0.8-0.9l-0.2-1.1c-0.1-0.4,0-0.7,0.3-0.9L659.7,305.3z M670.1,310.1
	c-0.3-0.1-0.7-0.2-0.7-0.7c0,0,0-0.1,0-0.4v-0.4l2-0.5c0.1,0.3,0.2,0.5,0.4,0.7c0.2,0.5-0.1,0.7-0.3,1l3.1-0.7
	c-0.4-0.3-0.5-0.3-0.7-0.7l-1.4-2.2c0.1-0.1,0.2-0.3,0.2-0.6c-0.3,0-0.6-0.1-0.8-0.4l-1-1.4c-0.2-0.3-0.2-0.6-0.1-0.8l-3,0.7
	c0.2,0.2,0.3,0.4,0.3,0.8l-0.2,1.7c-0.1,0.3-0.3,0.6-0.6,0.7c0.1,0.3,0.3,0.4,0.4,0.4l-0.3,2.6c-0.1,0.5-0.1,0.6-0.4,0.9
	L670.1,310.1z M669.5,307.1c0.1-0.7,0.1-1.4,0.2-2c0.3,0.6,0.7,1.2,1,1.7L669.5,307.1z"/>
<path class="st0" d="M645,358c-2.9-4.6-5-9.8-6.1-15.3c-1,4.3-2.7,8.3-5,11.9c-3.5-5.6-5.7-12-6.1-19c-1,4.8-2.8,9.3-5.4,13.3
	c-3.5-5.6-5.8-12.3-6.1-19.4c-1,4.3-2.7,8.4-5,12c-3.1-4.9-5.2-10.6-5.9-16.6c-0.9,2.7-2,5.4-3.3,7.8c-2.7-4.9-4.4-10.6-5-16.7
	c-0.9,3.5-2.2,6.9-3.9,9.9c-2.8-5.1-4.6-11.1-5.1-17.4c3.9,3,8.1,5.4,12.4,7.2c1.3,0.3,4.1-0.5,2.9-2.5c-1-1.6-7.8,1.1-8.3-2.5
	v-13.5l-0.3-0.2l0.2,0.1l0,0l0,0l1.5,0.9v-0.9l0,0l0,0v12.5c3-3.1,8.8,1.7,13.2,2.5h0.1c0.1,5.3,0.5,10.5,1.2,15.6
	c0.5-4.9,0.9-9.9,1-14.9c1.5,0.5,3.2,0.9,4.9,1.2c0.2,1.3,0.3,2.6,0.4,4c0.3-1.2,0.7-2.5,1-3.7c0.9,0.2,1.8,0.3,2.8,0.5
	c0,6.7,0.4,13.3,1.2,19.7c0.7-6.4,1.1-12.8,1.1-19.3c1.1,0.2,2.2,0.3,3.3,0.5c0.9,3,1.5,6.1,1.7,9.3c0.6-3.1,1.6-6.1,2.9-8.9
	l1.5,0.1c-0.3,8.8,0,17.4,1,25.7c0.9-8.4,1.3-16.9,1-25.5l1.4,0.1c1,2.3,1.8,4.6,2.5,7.1c0.5-2.4,1.2-4.7,2-6.9c1.1,0,2.2,0,3.3,0
	c-0.7,10.5-0.4,20.6,0.8,30.3c1.1-10,1.4-20.1,0.8-30.3c1.1,0,2.3,0,3.4-0.1c0.8,2.1,1.5,4.4,2,6.6c0.6-2.4,1.4-4.6,2.4-6.8l1.5-0.1
	c-0.3,8.8,0,17.3,1.1,25.6c0.9-8.5,1.3-17,1-25.7l1.4-0.1c1.3,2.8,2.3,5.8,2.9,8.9c0.2-3.3,0.8-6.4,1.7-9.4c1-0.1,2-0.3,3-0.4
	c0,6.6,0.4,13.1,1.2,19.4c0.7-6.5,1.1-13.1,1.1-19.8c1-0.2,2-0.4,3-0.6c0.4,1.2,0.8,2.5,1.1,3.8c0.1-1.4,0.2-2.8,0.4-4.1
	c1.8-0.4,3.4-0.9,4.9-1.3c0.1,5.1,0.5,10.1,1.1,15.1c0.6-5.2,0.9-10.5,1.1-15.8c4.3-1.1,9.6-5.2,12.5-2.3v-12.5l0,0l0,0v0.9l1.8-1
	l-0.3,0.2v13.5c-0.6,3.6-7.4,0.9-8.3,2.5c-1.2,2,1.6,2.7,2.9,2.5c4.6-1.9,9.1-4.6,13.3-7.9c-0.5,6.6-2.3,12.7-5.2,18.1
	c-1.7-3-3-6.3-3.9-9.9c-0.6,6.1-2.4,11.7-5,16.7c-1.3-2.4-2.4-5.1-3.3-7.8c-0.7,6-2.8,11.7-5.9,16.6c-2.3-3.7-4-7.7-5-12
	c-0.4,7.1-2.6,13.7-6.1,19.4c-2.5-4-4.3-8.5-5.3-13.3c-0.4,7-2.6,13.4-6.1,19c-2.2-3.5-3.9-7.4-5-11.5
	C650,348.5,647.9,353.5,645,358z M620.2,310.4c0.4-0.8,0.8-1.6,1.2-2.4v0.7l-0.2,1.1c-0.1,0.3,0,0.7,0.2,0.9l0,0L620.2,310.4z
	 M624.6,310.1c0.2,0.4,0.4,0.9,0.6,1.3l-1.2-0.2c0.3-0.1,0.5-0.4,0.5-0.8L624.6,310.1z M642.4,313.3c0.3-0.7,0.7-1.4,1-2l1,1.6
	l-0.1,0.5h-1.9V313.3z M645.2,309.8L645.2,309.8c0.1-0.1,0.3-0.3,0.3-0.4c0.7,1.2,1.4,2.4,2,3.6c-0.5-0.2-0.9-0.5-1.2-1
	s-0.5-1.1-0.6-1.8C645.4,310.1,645.3,310,645.2,309.8z M664.8,311.2c0.2-0.5,0.5-1.1,0.7-1.6c0.2,0,0.4-0.1,0.7-0.2v0.4
	c-0.2,0.4-0.3,0.8-0.3,1.2L664.8,311.2z M668.3,310.5c0-1-0.1-2-0.1-3.1c0.5,0.9,1,1.8,1.4,2.7L668.3,310.5z M674,309.2l0.2-0.5
	c0.1,0.1,0.3,0.2,0.5,0.4L674,309.2z"/>
<path class="st0" d="M648.3,231.8v-2.6c1.5,0.1,2.2-0.7,3.3-1c1.2-0.8,3.2-1,4.2-0.8c2.7,1.1,4.6,1.3,7.5,2c1.6,0.3,5,1.8,7.9,2.4
	c2.7,0.6,5.5,0.5,8.2,0.8c-3.2,0.3-7.8,0.6-10.7-0.3c-1.6-0.5-2.9-1.4-4.8-1.3c-6.2-2.6-2.7,0.7-5.3,0.5c-0.4-0.1-0.8-0.6-1.2-0.2
	c-0.3,0.4-0.3,0.9-1,1.2c-1.1,0.1-2-0.6-3.3,0.1c-1.2,0.8-3.3,1.9-4.6,2.9v-2.7c2.9-0.1,3.9-1.8,5.7-2.3c-1.2,0-1.6-0.5-2.3-0.8
	C650.4,229.4,649.9,231.4,648.3,231.8z"/>
<path class="st0" d="M667.3,239.5c8.9-1.7,14.2-5.8,26.6-5.2v14.2h-30c-1.8-0.4,2-1.8-5.5-1.1c1-2,4.5-1.6,6.7-2.5
	c3.7-1,4.2-2.9,6.3-4.4C670.1,240.2,664.1,241.2,667.3,239.5z"/>
<path class="st0" d="M657.3,237.9c-3.2,0.8-3.3-2-8.2-0.5c2.9-2.4,5.6-2,8.1-4.3c3.7-3.5,8.6,0.9,14.2,1.2
	C662.5,234.4,662.5,237.7,657.3,237.9z"/>
<path class="st0" d="M666.5,223.9l-3.6,1c1.2-0.7,2.3-2.2,3.6-2l1.7,0.3l3.3-1.9c1.2-0.5,1.7-0.1,2.6-0.1c0.5,0.1,0.8-0.9,1.2-1.4
	c0.4-0.4,1-0.2,1.6-0.3l1-0.9c0.4-0.4,1,0.3,1.6-0.1c0.3-0.5,0.2-1.2,0.9-1.5l1.6,0.1l1.4-0.8c0.6-0.3,1.1-0.3,1.6,0.1l0.9,1.3
	l0.3,0.8c0.7,1,2,1.4,3.1,2l2.6,2.3l1.8,0.7v1.2l-4.4,0.1l-2.4-0.7l-1.6-1c-0.8-0.5-1.4,0.6-2.1,0.9l-2-0.5l-1.5-0.9
	c-0.5-0.3-1,1-1.4,0.7l-1.5-1.2c-0.8-0.4-1.4,1.2-2.1,1.8l-2.4,0.9l-1.8-0.5c0.1-0.4,1.2-1.3,0.3-1.3l-2.3,1L666.5,223.9z"/>
<path class="st0" d="M669.1,229.8c3.2-1.6,3.7-3.2,5.6-4.8c0.7-0.5,1.2-0.5,1.7,0C674.6,226.4,674.1,229.8,669.1,229.8z"/>
<path class="st0" d="M676.8,228.1c-1.2,0.3-2.3,1.7-3.5,0.9c1.7-1,1.9-2.6,3.1-3.7c0.9-0.7,1.5,1.5,2.7,2c3.3,1.3,4.5,2.4,8.2,3.4
	c-3.9,0-4.6-1.5-7.9-2.1c-1,0-1.8,0.8-2.7,1.2c-0.9,0.4-1.1-0.2-1.6-0.3C675.9,229.2,676.2,228.6,676.8,228.1z"/>
<path class="st0" d="M619.6,214.8c7.1-1.4,13.9-3.6,20.9-7.5l-0.1,10.3c-1.8,0.9-1.7,2.9-3.3,0.9c1.6-0.7,2-3-0.6-3.1
	c0.9-2.1-4.2-3.2-4.3,0.5c-1.4,0.5-2.1,2.7-4,1.5c-1.3-1.8-3.7-1-4.3,0.3c-0.3,0.7-1,0.8-1.2,0.5C623.7,216.5,623.5,215,619.6,214.8
	z"/>
<path class="st0" d="M676.5,215.1c-9.4-1-19.6-3.3-28.1-8.1l0.1,15.2c2.3,1,2,0.9,4-1.5c-2-0.8-2.4-3.7,0.7-3.9
	c-1.1-2.6,5.1-5.5,5.2-1.1c1.8,0.6,2.5,3.3,4.8,1.8c1.7-2.2,4.6-1.3,5.3,0.4c0.4,0.9,1.8,0.6,2.1,0.3
	C673.1,216.5,675.2,217,676.5,215.1z"/>
<path class="st0" d="M669.7,290.3c3.2-0.2,6.4-0.8,8.7-1.2c-1.5-1.8-8.4-5.6-10-8.7c-1.2-2.4-0.5-1.9-4.7-3.5
	c-1.8-0.7-2.6-0.1-2.2,0.9c0.4,0.9,1.2,0.4,2.6,1.3c1.4,0.9,1.1,2.6,1.4,4.3C666.1,287.5,665.3,285.7,669.7,290.3z"/>
<path class="st0" d="M658.8,281C658.8,281,658.7,281,658.8,281c-0.1,0.1-0.5,0.5-0.4,1.2c0.2,0.7,0.5,0.6,0.9,0.9
	c-0.6,1-0.4,1.4,0.6,2c-0.9,3.2,3.5,0.8,4.1,0c0.2-0.5-0.4-1.1-0.7-1.4l-0.2-0.2c0.6-0.3,1.1-0.5,0.9-1.3c-0.3-0.9-0.7-0.7-1.3-1
	c0.1-0.6-0.3-1.3-0.7-1.6c-0.4-0.2-0.4-0.1-0.7-0.5c-0.3-0.5-0.1-0.4-0.6-0.8C659.5,278.4,656.9,279.8,658.8,281z"/>
<path class="st0" d="M663.9,283.8c0.7,1.1,0.8,1.7-0.6,2.4c-1.2,0.7-1.2,0.3-1.3,0.9c0.8,0.1,2.4-0.3,3.3-0.5
	c-0.1-1.7-0.4-3.8-0.6-5.5c-0.3-1.9-1.6-2-3.3-2.5c0.4,0.9,0.7,0.2,1.4,1.7c0.3,0.6,0.1,0.3,0.5,0.7
	C665.1,282.3,664.2,283.3,663.9,283.8z"/>
<path class="st0" d="M661.5,253.4l0.7,7.4l2.1-7.1l-0.9,7.4l3.5-6.5l-2.3,7l4.7-5.6l-3.7,6.3l5.8-4.4l-4.9,5.4l6.5-3.1l-5.9,4.3
	l7-1.6l-6.6,2.9l7.2-0.1l-7.1,1.4l7.1,1.4l-7.2-0.1l6.6,2.9l-7-1.6l5.9,4.3l-6.5-3.1l4.9,5.4l-5.6-4.3c0.2-0.3,0.3-0.6,0.3-0.9l0,0
	c-0.1-0.6-0.6-1.1-1.2-1h-0.3c0-0.2,0.1-0.2,0-0.4c-0.1-0.1-0.3-0.1-0.5,0c0,0.3-0.1,0.3,0.1,0.4l0,0l-0.6,0.1c0,0,0,0,0-0.1
	c0.1-0.3,0-0.5-0.2-0.5c-0.2,0-0.3,0.2-0.3,0.4c0.1,0.2,0.1,0,0.1,0.2l-0.6,0.1c0.1-0.1,0.2-0.3,0-0.4c-0.2-0.3-0.7,0.1-0.3,0.5l0,0
	l-0.6,0.1l0,0c0,0.1,0.2-0.5-0.2-0.5c-0.1,0-0.2,0.1-0.2,0.1c-0.1,0.1-0.1,0.1,0,0.2c0.1,0.2,0.1,0,0.1,0.2l-0.6,0.1l0,0l0.1-0.1
	c0.2-0.3-0.1-0.5-0.4-0.3c-0.1,0.4,0.1,0.3,0.1,0.4l0,0l-0.6,0.1c0-0.1,0.1-0.2,0.1-0.4c-0.1-0.1-0.3-0.2-0.4,0
	c-0.2,0.2,0,0.3,0.1,0.4l-0.6,0.1l0,0c0-0.1,0.2-0.3,0-0.4c-0.1-0.2-0.3-0.1-0.4,0.1c-0.1,0.3,0,0.3,0.1,0.4l0,0h-0.2
	c-0.6,0.1-1.1,0.7-1,1.3l0,0c0,0.4,0.3,0.7,0.6,0.9l-4.4,5.2l3.7-6.3l-5.8,4.4l4.9-5.4l-6.5,3.1l5.9-4.3l-7,1.6l6.6-2.9l-7.2,0.1
	l7.1-1.4l-7.1-1.4l7.2,0.1l-6.6-2.9l7,1.6l-5.9-4.3l6.5,3.1l-4.9-5.4l5.8,4.4l-3.7-6.3l4.7,5.6l-2.3-7l3.5,6.5l-0.9-7.4l2.1,6.9
	c-0.2-0.1-0.4-0.1-0.7-0.1c0.3,0.2,0.8,0.2,0.9,1.1c0,0.4-0.1,0.9-0.1,1.2c-0.1,0.1-0.1,0.3-0.1,0.4c-0.3-0.2-0.3-0.6-0.2-1
	c-0.2,0.1-1,1.2-1.1,1.4c-0.9,1.4-1.8,2.7-2,4.3c-0.1,0.8,0.2,2.2,0.7,2.3c-0.2-0.6-0.3-1.2,0-1.7c0.2,0.3,0.2,0.6,0.7,0.9
	c-0.3-1.1-0.3-1.8,0.1-2.9c0.1-0.2,0.3-0.7,0.3-0.8l0.3-0.4c0,0.2,0,0.4,0.1,0.5c-0.1,0.6,0.6,1.6,0.9,2c0.6,0.7,0.8,0.9,0.6,2
	l3.1-0.4c0.3,0,0.3-0.1,0.4-0.3c0.8-1.4,0.3-2.6-0.8-3.5c-0.2-0.1-0.6-0.5-0.7-0.5c-0.3-0.4-0.3-0.3-0.6-0.7l0,0
	c-0.2-0.2-0.4-0.6-0.3-1c0.1-0.4,0.3-0.7,0.4-0.9c-0.9,0.5-0.9,1.3-0.8,2.2c0,0.1,0.1,0.2,0.1,0.4c0.3,0.6,1.3,2.6,0.1,2.6
	c-0.9,0-1.2-1.4-1.2-2.2v-0.2l0.1-0.3v-0.3c0.2-0.9,0.9-2.9,0.2-3.8c-0.1-0.1-0.2-0.2-0.3-0.3L661.5,253.4z M660,276.2l2.2-0.3
	l0.2,1.6l2.4-0.3l0.1-1.7c0.4-0.1,0.7-0.3,0.6-0.9c-0.1-0.5-0.5-0.5-1-0.4c0.1-0.2,0.1-0.2,0.2-0.3c0.3-0.4,0-0.3,0.3-0.4
	c0.1,0,0.2-0.1,0.2-0.1l4.1,4.8l-3.6-6.2c-0.2,0.2-0.5,0.3-0.7,0.3l-6.4,0.7c-0.1,0-0.3,0-0.5,0l-2.2,6.6l3-5.4h0.1
	c0.1,0,0.1,0.1,0.1,0.1c0.1,0.1,0.1,0.1,0.2,0.3c0.1,0.1,0.2,0.1,0.2,0.2c-0.5,0.1-0.9,0.2-0.9,0.7c0,0.7,0.7,0.7,0.8,0.7l0.4,1.5
	l0.5-0.1L660,276.2z M659.7,273.3h-0.1l0,0H659.7z"/>
<path class="st0" d="M669.6,278.9c1,3.1,6.7,6.5,11.5,9.3c2-0.3,4.4-1.3,6.3-2.4L669.6,278.9z"/>
<path class="st0" d="M659.7,290.8l-0.9-5.1c-0.5-0.5-0.8-1-0.7-1.9c-0.6-0.5-0.6-1.4-0.3-2.5c-0.4-0.5-0.6-0.8-0.2-1.8
	c-1.1,0.9-2.1,2.2-2.9,3.5l-6.2,10.4C651.1,291.8,656.6,291.3,659.7,290.8z"/>
<path class="st0" d="M561.2,275.6c0.2-0.8-0.4-2.2,0-2.2c1.7,1.9,3.8,3.5,5.8,4.8c1.1,1.2,2.5,6.2,5.8,8.6c1.2,0.3,3.7,0.7,5,2.3
	c0.8,1.6,2.1,2.9,2.8,4c-3.8-1.1-6.6-2.4-9.6-5.6c-0.7-0.5-0.1,1.4,0.7,3.4c-1.5-3.6-6.3-3.4-6.8-7.9c0-0.7,2.4,0.1,1.8-0.3
	c-2-0.6-2.2-2.5-3.3-3.7C562.8,277.8,561.9,276.7,561.2,275.6z"/>
<path class="st0" d="M558.1,252.7c-0.4-2.7-2.3-5.8-4-8.1c-0.1-1.9,0.4-3.9,1.4-5.1c0.1,1.8,1.7,2.4,1.9,4.6
	c-0.3,1.2,3.7,3.9,3.5,7.2c-0.7-0.8-1.4-2.1-2.4-2.4C558.8,250.4,558.1,251.2,558.1,252.7z"/>
<path class="st0" d="M551.8,250.5c-1.2-1.3-1.9-2.6-3.7-3.6c0-0.9-0.5-1.8,0-2.7c-1.1-0.9-1.9-3.7-0.3-7.8c1.1,0.9,2,2.7,2.1,3.7
	c1.1,0.6,2,1.3,2.4,2.3c0.7,1,1.2,2.1,1.4,3.1c1.9,2,3.2,4.7,4,7.8c0.3,1.2,0.4,2.5-0.1,3.8c-0.4,1.3,0,2,0,3
	c-1-1.2-2.2-1.8-3.1-3.5c-0.2-0.7,0.1-1.5-0.5-2.2C552.8,253.4,552.6,251.8,551.8,250.5z"/>
<path class="st0" d="M543.5,251.2c-0.4-3.5-1.3-4.5-1-7c1.5,1.1,3.4,1.6,4.6,3.2c2.1,0.6,2.6,2.1,3.9,3.1c1,0.6,0.8,2.8,2.6,4.7
	c1,2.4,0.5,7.3,1.4,8.6c-1.6-0.5-2.7-1.7-4.1-2.6c-1.5-0.2-3.5-0.1-4.7-2.9C545.7,254.7,543.5,253.7,543.5,251.2z"/>
<path class="st0" d="M548.1,266c0-2.4-2.3-4.1-2.2-6.9c0.7,1.8,2.3,2.7,4.7,2.7c0.6,0.1,2.3,2.2,4.2,2.9c1.3,1,0.7,4,1.5,6
	c1.2,2.1,3.2,3.3,4.3,5c1.1,1.1,1.4,2.2,2,3.3l-5.8-3.4c-1.8-1.2-4.6-1.2-5.4-3.5C550.9,269.3,548.4,268.6,548.1,266z"/>
<path class="st0" d="M555.8,265.2c-1-2.9-0.7-4.8-1.1-7.2c2.1,2.5,5.5,4.4,6.7,6.5l3.1,5.7c0.9,1.4-0.5,4,2.3,6.9
	c-2.3-1-4.1-3.3-6.2-4.9c-0.5-0.3-0.2,1.3-0.1,2.7l-3.5-4.2C555.9,269.3,556.6,267.4,555.8,265.2z"/>
<path class="st0" d="M558.5,254.6c-0.2-0.8,0.6-2.9,0.4-4.8c0.7,0.7,1.3,1.5,1.7,2.4c-1.3,7,3.5,13.4,10.1,13.6l1.4,3.4
	c-2.6-1.4-8.6-3.5-10.5-5.3c-1-1.5-2.7-2.6-3.3-3.9C557.5,258.5,558.8,256.8,558.5,254.6z"/>
<path class="st0" d="M565.3,270.1c-0.3-1.4-1.9-3-2.6-4.8c2.3,1.5,7.5,3.5,10,4.8c3.8,6.2,8.3,10.2,13.5,15.4
	c0.2,1.2,0.9,3.6,1.4,4.9c-4.4-3.1-11.5-11.4-13-15.3c-1,3,0.7,10.4,2,12c-1.4-0.6-2.6-0.7-3.5-0.9c-1.1-1.4-2.4-2-3.3-4.1l-3.7-6.8
	C565.5,273.7,565.9,271.8,565.3,270.1z"/>
<path class="st0" d="M555.6,281.1c-0.4-4.3-6.1-7.4-4.4-8.2c2,2.5,4.2,2.3,6.2,3.7c2.1,1.1,3.9,2.2,5.7,3.5c0.8,0.7,1,1.6,1.6,2.2
	c-1.4,0.8,0.7,3.8,1.8,4.9c1,1.1,3.6,2.2,4.3,3.4c-1.2-0.2-8.2-2-9.6-3.5C559.9,284,556.1,283.7,555.6,281.1z"/>
<path class="st0" d="M557.1,285.2c0.2-0.7,2.9,2,4.3,3c2.9,1.4,7.2,2.4,10.2,3.3c1.4,2.8,2.9,5.1,5.3,7.6c-2.4-1.2-7-5.1-7.7-4.2
	c-0.2,2.7,3.9,7.8,2.2,7.1c-1.8-1.8-3.5-2-4.9-5.1c-1.6-4-4.9-4.7-7.3-8C558.4,287.8,557.3,286.6,557.1,285.2z"/>
<path class="st0" d="M573.7,304.7c-0.6-3.1-4.5-8.2-3.5-8.8c0.5-0.3,5.7,3.9,8.1,5.2c2.2,3.4,4.2,5.7,7.4,8.4c0,1.4,0.2,3.1,0.4,4.2
	C580.6,311.2,577.8,307.7,573.7,304.7z"/>
<path class="st0" d="M573.3,309.1c-1.7-1-3.5-3.3-4.2-4.6l0,0l0,0c-0.2-0.3-0.3-0.6-0.3-0.8c-0.6-1-0.7-2-1-2.9
	c0.8-0.1,2.7,1.9,4.2,2.7c1.2,0.9,0.5,1.6,1.5,2.1c1.5,0.9,3,2.8,4.7,3.7c2.5,2.4,5.3,4.1,7.9,5.4l2,6.6c-3.9-0.6-4.3-4.1-7.2-4.7
	c-3.4-0.4-1.7-2.9-4.1-3.3C573.6,312.5,575.5,309.7,573.3,309.1z"/>
<path class="st0" d="M728.2,275.6c-0.2-0.8,0.4-2.2,0-2.2c-1.7,1.9-3.8,3.5-5.8,4.8c-1.1,1.2-2.5,6.2-5.8,8.6
	c-1.2,0.3-3.7,0.7-5,2.3c-0.8,1.6-2.1,2.9-2.8,4c3.8-1.1,6.5-2.4,9.6-5.6c0.7-0.5,0.1,1.4-0.7,3.4c1.5-3.6,6.3-3.4,6.8-7.9
	c0-0.7-2.5,0.1-1.8-0.3c2-0.6,2.2-2.5,3.3-3.7C726.5,277.8,727.4,276.7,728.2,275.6z"/>
<path class="st0" d="M731.3,252.7c0.4-2.7,2.3-5.8,4-8.1c0.1-1.9-0.4-3.9-1.4-5.1c-0.1,1.8-1.7,2.4-1.9,4.6c0.3,1.2-3.7,3.9-3.5,7.2
	c0.7-0.8,1.4-2.1,2.4-2.4C730.6,250.4,731.2,251.2,731.3,252.7z"/>
<path class="st0" d="M737.5,250.5c1.2-1.3,1.9-2.6,3.7-3.6c0-0.9,0.5-1.8,0-2.7c1.1-0.9,1.9-3.7,0.3-7.8c-1.1,0.9-2,2.7-2.1,3.7
	c-1.1,0.6-2,1.3-2.5,2.3c-0.6,1-1.2,2.1-1.4,3.1c-1.9,2-3.2,4.7-4,7.8c-0.3,1.2-0.4,2.5,0.1,3.8c0.4,1.3,0,2,0,3
	c1-1.2,2.2-1.8,3.1-3.5c0.2-0.7-0.1-1.5,0.5-2.2C736.5,253.4,736.8,251.8,737.5,250.5z"/>
<path class="st0" d="M745.9,251.2c0.4-3.5,1.3-4.5,1-7c-1.5,1.1-3.4,1.6-4.6,3.2c-2.1,0.6-2.6,2.1-3.9,3.1c-1,0.6-0.8,2.8-2.6,4.7
	c-1,2.4-0.5,7.3-1.4,8.6c1.6-0.5,2.7-1.7,4.1-2.6c1.5-0.2,3.5-0.1,4.7-2.9C743.7,254.7,745.9,253.7,745.9,251.2z"/>
<path class="st0" d="M741.3,266c0-2.4,2.3-4.1,2.2-6.9c-0.7,1.8-2.3,2.7-4.7,2.7c-0.6,0.1-2.3,2.2-4.2,2.9c-1.3,1-0.7,4-1.5,6
	c-1.2,2.1-3.2,3.3-4.3,5c-1,1.1-1.3,2.2-2,3.3l5.8-3.4c1.8-1.2,4.6-1.2,5.4-3.5C738.5,269.3,740.9,268.6,741.3,266z"/>
<path class="st0" d="M733.5,265.2c1-2.9,0.7-4.8,1.1-7.2c-2.1,2.5-5.5,4.4-6.7,6.5l-3.1,5.7c-0.9,1.4,0.5,4-2.3,6.9
	c2.3-1,4.1-3.3,6.2-4.9c0.4-0.3,0.2,1.3,0.1,2.7l3.5-4.2C733.5,269.3,732.7,267.4,733.5,265.2z"/>
<path class="st0" d="M730.8,254.6c0.2-0.8-0.6-2.9-0.4-4.8c-0.7,0.7-1.3,1.5-1.7,2.4c1.3,7-3.5,13.4-10.1,13.6l-1.4,3.4
	c2.6-1.4,8.6-3.5,10.5-5.3c1-1.5,2.7-2.6,3.3-3.9C731.8,258.5,730.5,256.8,730.8,254.6z"/>
<path class="st0" d="M724,270.1c0.3-1.4,1.9-3,2.6-4.8c-2.3,1.5-7.5,3.5-10,4.8c-3.7,6.2-8.3,10.2-13.5,15.4
	c-0.2,1.2-0.9,3.6-1.4,4.9c4.4-3.1,11.4-11.4,13-15.3c1,3-0.7,10.4-2,12c1.4-0.6,2.5-0.7,3.5-0.9c1.1-1.4,2.4-2,3.3-4.1l3.7-6.8
	C723.9,273.7,723.4,271.8,724,270.1z"/>
<path class="st0" d="M733.7,281.1c0.4-4.3,6.1-7.4,4.4-8.2c-2,2.5-4.2,2.3-6.2,3.7c-2.1,1.1-3.9,2.2-5.7,3.5c-0.8,0.7-1,1.6-1.6,2.2
	c1.4,0.8-0.7,3.8-1.9,4.9c-1,1.1-3.6,2.2-4.3,3.4c1.2-0.2,8.2-2,9.6-3.5C729.4,284,733.2,283.7,733.7,281.1z"/>
<path class="st0" d="M732.2,285.2c-0.2-0.7-2.9,2-4.3,3c-2.9,1.4-7.2,2.4-10.2,3.3c-1.3,2.8-2.9,5.1-5.3,7.6c2.4-1.2,7-5.1,7.7-4.2
	c0.2,2.7-4,7.8-2.2,7.1c1.8-1.8,3.5-2,4.9-5.1c1.6-4,4.9-4.7,7.3-8C730.9,287.8,732,286.6,732.2,285.2z"/>
<path class="st0" d="M715.6,304.7c0.5-3.1,4.5-8.2,3.5-8.8c-0.5-0.3-5.7,3.9-8.1,5.2c-2.2,3.4-4.2,5.7-7.4,8.4
	c0,1.4-0.2,3.1-0.3,4.2C708.8,311.2,711.5,307.7,715.6,304.7z"/>
<path class="st0" d="M716,309.1c1.7-1,3.5-3.3,4.2-4.6l0,0l0,0c0.2-0.3,0.3-0.6,0.3-0.8c0.6-1,0.6-2,1-2.9c-0.8-0.1-2.7,1.9-4.2,2.7
	c-1.2,0.9-0.5,1.6-1.5,2.1c-1.5,0.9-3,2.8-4.7,3.7c-2.5,2.4-5.2,4.1-7.9,5.4l-2,6.6c3.9-0.6,4.3-4.1,7.2-4.7
	c3.4-0.4,1.6-2.9,4.1-3.3C715.7,312.5,713.8,309.7,716,309.1z"/>
<path class="st0" d="M595.2,255.5h25.2c-1.2,0.2-2.2,0.4-2.6,0.9c-1.5-0.8-4.6-0.4-6,0.6c-1.7,1.2-2.5,1.6-5,2.1
	c-1.2,0.3-3.4,1.8-4.1,0.6c0-0.1,0.2-0.1,0.3,0c1.4,1.1,5.1-2.8,1.1-2.9c-1.1,0-3.6,1.2-3.5,2.8c0,0.9-2.2,1.5-3.4,1.2
	c-0.7-0.2-2.4,0.6-0.5,1.9c0.3,0.2,0.8,0.3,1.4,0.3c-0.7,1.3-1.6,1.8-3,1v-8.5H595.2z"/>
<path class="st0" d="M595.6,271.1l0.9-0.1v-0.2c0-0.1,0-0.1,0.1-0.2l0.1-0.1c0.1,0,0.3-0.1,0.5-0.1v-0.5c0-0.1,0-0.1,0.1-0.2
	c0-0.1,0.1-0.1,0.1-0.1c0.5-0.1,1.3-0.3,1.8-0.4v1.2l0.5-0.1l0.5,1.1l0.5-0.1v-2l1.4-0.4v0.6c0.6-0.5,1.2-0.8,1.8-1l7.8-1.3
	c0.6-0.1,1.2,0,1.6,0.2c-1.2-0.3-3.4,0.3-4.8,1.5l-0.1,5.3l0.6-0.1c0.1-1,0.1-4,0.2-5c1.1-1,2.6-1.6,4.7-1.4l0,0l1.4-0.2
	c0.4-0.3,0.7-0.9,1.3-1l2.7-0.4l0.4-0.4l2.2-0.3l0.4,0.3c1-0.2,1.9-0.2,1.9,0.5l5.3-0.9l-0.1-0.8c0.7-0.3,1.3-0.3,2-0.2l0.1,1
	c0.4,0.1,0.4,0.3,0.5,0.4c0.3-0.2,0.6-0.3,0.9-0.5c0.1,0,0.1,0,0.2-0.1v-0.9l0.3-0.1c0-0.3-0.1-0.3-0.3-0.2c0.1-0.5-0.3-0.8-0.7-1.1
	c0.5,0,1,0.1,1.2,0.5c0.4-0.2,0.9-0.2,1.3-0.1c-0.4,0-0.8,0.1-1,0.4c0.2,0.1,0.3,0.3,0.2,0.4c-0.2-0.2-0.3-0.2-0.5-0.2l-0.1,0.3
	l0.4,0.1l0.1,1c0.1,0,0.2,0,0.3,0.1c0.1-0.3,0.2-0.6,0.2-0.9c0.3-0.2,0.5-0.2,0.9-0.1c0.1,0.4,0.1,0.8,0.4,1.1v0.3h-0.5
	c0.4,0.4,0.8,0.8,1.1,1.5c0.1,0.3,0.3,0.7,0.4,1.1l0.1,0.1c0.3-0.1,0.6-0.1,0.9-0.1c0.3,0.1,0.4,0.4,0.3,0.7l-0.5,0.2
	c0.1,0.5-0.3,0.9-0.6,0.9c-0.1,0.8-0.3,1.6-0.6,2.2c-0.2,0.5-0.4,0.9-0.7,1.1l1.4,0.1l2.2,2.7l0.5,3.9h-9.2l0.3-2.7l-1.7,0.1
	l-0.3,0.4h-0.6l0.1-1.2l-0.6,0.1l-0.1,1.6h0.8l-0.9,1.7h-6.7v-1.2l1-0.6v-1l5.9-0.8v-0.6l-11.8,1.2l-0.8-0.6l-2.8,0.5v1.6h-1.6
	l-5.6-1.5l-2.7,0.4v2.7h-4.8c-0.3-0.5-0.6-1.1-0.9-1.8C596.2,276.1,595.8,273.6,595.6,271.1z M625,267.5c0,0.1,0,0.1,0,0.2
	c-0.1,0-0.1,0-0.2,0s-0.2,0-0.2,0v-0.1c0-0.1,0.1-0.1,0.1-0.2c0.1-0.1,0.1-0.1,0.1-0.2v-0.1c0-0.1,0-0.1-0.1-0.1
	c-0.1,0-0.1,0.1-0.1,0.2v0.1h-0.1v-0.1c0-0.1,0-0.1,0.1-0.1c0-0.1,0.1-0.1,0.2-0.1s0.1,0,0.2,0s0.1,0.1,0.1,0.1v0.1l-0.1,0.1
	l-0.1,0.1l-0.1,0.1l0,0C624.8,267.6,624.9,267.6,625,267.5z M625.4,267c0,0.1,0,0.2,0,0.3c0,0.1,0,0.2,0,0.3c-0.1,0-0.1,0-0.2,0
	c0-0.1,0-0.2,0-0.3c0-0.1,0-0.2,0-0.3l-0.1,0.1V267c0.1,0,0.1-0.1,0.2-0.2C625.4,267,625.4,267,625.4,267z M626.2,267.4
	c0,0.1,0,0.1,0,0.2c-0.1,0-0.2,0-0.3,0s-0.2,0-0.3,0v-0.1c0.1-0.1,0.1-0.1,0.1-0.2c0.1-0.1,0.1-0.1,0.1-0.2s0.1-0.1,0.1-0.1
	c0-0.1,0-0.1-0.1-0.1s-0.1,0.1-0.1,0.2v0.1h-0.1v-0.1c0-0.1,0-0.1,0.1-0.2c0-0.1,0.1-0.1,0.2-0.1c0.1,0,0.1,0,0.2,0
	c0.1,0,0.1,0.1,0.1,0.1v0.1c0,0.1-0.1,0.1-0.1,0.1s-0.1,0-0.1,0.1l-0.1,0.1l0,0C626,267.4,626.1,267.4,626.2,267.4z M624.3,266.9
	l2.2-0.3v1.2l-2.2,0.2V266.9z M600,281.3h1.2v1.2H600V281.3z M602.6,281.2l-1.3,0.1v1.2L602.6,281.2z M605.2,281.3h1.2v1.2h-1.2
	V281.3z M607.7,281.2l-1.3,0.1v1.2L607.7,281.2z M610.3,281.3h1.2v1.2h-1.2V281.3z M612.9,281.2l-1.3,0.1v1.2L612.9,281.2z
	 M615.5,281.3h1.2v1.2h-1.2V281.3z M618,281.2l-1.3,0.1v1.2L618,281.2z M620.6,281.3h1.2v1.2h-1.2V281.3z M623.2,281.2l-1.3,0.1v1.2
	L623.2,281.2z M625.7,281.3h1.2v1.2h-1.2V281.3z M628.3,281.2l-1.3,0.1v1.2L628.3,281.2z M630.9,281.3h1.2v1.2h-1.2V281.3z
	 M633.4,281.2l-1.3,0.1v1.2L633.4,281.2z M636,281.3h1.2v1.2H636V281.3z M638.6,281.2l-1.3,0.1v1.2L638.6,281.2z M607.5,278.3
	c0.9,0,1.7,0.8,2,2h-0.4c-0.3-0.9-0.9-1.5-1.6-1.5s-1.4,0.6-1.6,1.5h-0.4C605.7,279.2,606.5,278.3,607.5,278.3z M607.6,279.1
	c0.7,0,1.2,0.5,1.4,1.2h-2.8C606.5,279.6,607,279.1,607.6,279.1z M614.2,278.2c1,0,1.8,0.9,2.1,2.2h-0.4c-0.2-1-0.9-1.7-1.7-1.7
	s-1.4,0.7-1.7,1.7h-0.4C612.3,279.1,613.2,278.2,614.2,278.2z M614.3,279c0.7,0,1.2,0.6,1.5,1.4h-3C613.1,279.5,613.6,279,614.3,279
	z M618.4,278.2c1,0,1.8,0.9,2.1,2.2h-0.4c-0.2-1-0.9-1.7-1.7-1.7c-0.8,0-1.4,0.7-1.7,1.7h-0.4C616.6,279.1,617.4,278.2,618.4,278.2z
	 M618.6,279c0.7,0,1.2,0.6,1.5,1.4h-2.9C617.3,279.5,617.9,279,618.6,279z M619.2,263.6c1,0.8,3.8-2,0.8-2.2
	c-0.8-0.1-2.7,0.9-2.6,2.1c0,0.7-1.6,1.1-2.5,0.9c-0.5-0.1-1.8,0.5-0.3,1.4c0.8,0.5,3.4,0,4.2-0.7c0.6-0.5,2.4,0.1,3.2-0.6
	c0.4-0.4,1.7-0.8,2-0.4c0.7,0.9,5.1,1,4.9-0.6v-0.1c0.2,0.3,0.6,0.4,1,0.3c0.7-0.1,1.2-0.8,1.2-1.4c0-0.4-0.2-0.8-0.5-1
	c-0.9-0.9-3.7-0.6-4.8,0.2c-1.3,1-1.9,1.2-3.7,1.6c-0.9,0.2-2.6,1.3-3.1,0.5C619,263.6,619.2,263.6,619.2,263.6z M608.4,275.2
	l1.1-0.1v-0.8c6.2-0.7,12.4-1.4,18.6-2.1c0.5,1,1.1,2,1.6,3.1l-0.1,1.4l1.3-0.1c0.2,0,0.1,0.3,0,0.3l-1.6,0.1l0.1-1.6l-1.4-2.8
	l-18.1,2v0.8l-1.4,0.1L608.4,275.2L608.4,275.2z M596.6,271l0.6-0.1v-0.1v-0.3l-0.5,0.1c0,0-0.1,0-0.1,0.1v0.1V271z M597.3,270.9
	l1.1-0.2v-0.4l-1.1,0.2V270.9L597.3,270.9z M598.5,270.7l0.6-0.1v-1.1l-1.7,0.3c-0.1,0-0.1,0-0.1,0.1l-0.1,0.1v0.5
	c0.4-0.1,0.9-0.1,1.2-0.2L598.5,270.7L598.5,270.7z M603.9,271.4l-1.5,0.3v1.8l1.5-0.2V271.4z"/>
<path class="st0" d="M672,256.9c-1.8,0.3-3.1-1.5-2-1.5h24.1c-1.9,0.6-2.2,3.5-5.7,1.8c-1.2,0.7-2.4,0.6-3.4,0
	c-1,1.6-2.5,1.9-4.3,0.7c-0.1-0.2-1.2,1.4-2,0.3c0.1,1.3-1.4,2.4-2.8,0.9c-0.1,0.6-1.2,1.7-2.3,0.9c-0.5,0.1-1.8-0.3-1.2-2
	C672,258.2,671.6,257.4,672,256.9z"/>
<polygon class="st0" points="693.7,264.4 688,261.2 688.3,269.3 689.3,268.5 693.7,269 "/>
<polygon class="st0" points="677.8,271.8 677.3,271.3 681.5,268.3 686,271.7 689.5,269.1 693.4,272 692.3,272 689.6,270 686,272.7 
	681.4,269.2 "/>
<path class="st0" d="M677.2,270.8l-6.2-8.9l16.5-1.4l0.2,9.3l-6.3-2.2L677.2,270.8z M680.9,263.1c0.5,0,1-0.1,1.4-0.1
	c0,0.2,0,0.4,0,0.5s0,0.3,0,0.5c-0.5,0-1,0-1.4,0.1c0-0.2,0-0.3,0-0.5C680.9,263.5,680.9,263.3,680.9,263.1z M675.2,263.4
	c0.4,0,0.7,0,1.1-0.1c0,0.1,0,0.3,0,0.5s0,0.3,0,0.5c-0.4,0-0.7,0-1.1,0.1c0-0.2,0-0.3,0-0.5C675.2,263.7,675.2,263.6,675.2,263.4z
	 M676.5,263.4c0.4,0,0.8-0.1,1.2-0.1c0,0.1,0,0.3,0,0.5s0,0.3,0,0.5c-0.4,0-0.8,0-1.2,0c0-0.1,0-0.3,0-0.5
	C676.5,263.7,676.5,263.5,676.5,263.4z M677.8,263.3c0.4,0,0.8,0,1.2-0.1c0,0.2,0,0.3,0,0.5s0,0.3,0,0.5c-0.4,0-0.9,0-1.2,0
	c0-0.2,0-0.3,0-0.5C677.8,263.6,677.8,263.5,677.8,263.3z M675.2,264.5c0.4,0,0.7,0,1.1,0c0,0.1,0,0.3,0,0.5c0,0.1,0,0.3,0,0.5
	c-0.4,0-0.7,0-1.1,0c0-0.1,0-0.3,0-0.5S675.2,264.7,675.2,264.5z M676.5,264.5c0.4,0,0.8,0,1.2,0c0,0.2,0,0.3,0,0.5s0,0.3,0,0.5
	c-0.4,0-0.8,0-1.2,0c0-0.2,0-0.3,0-0.5S676.5,264.6,676.5,264.5z M682.6,263.1c0.5,0,1-0.1,1.6-0.1c0,0.2,0,0.4,0,0.5
	c0,0.2,0,0.4,0,0.6c-0.5,0-1,0-1.6,0c0-0.2,0-0.3,0-0.5S682.6,263.2,682.6,263.1z M684.3,263c0.6,0,1.1-0.1,1.7-0.1
	c0,0.2,0,0.4,0,0.6s0,0.4,0,0.6c-0.6,0-1.2,0-1.7,0c0-0.2,0-0.3,0-0.5C684.3,263.3,684.3,263.1,684.3,263z M680.9,264.4
	c0.5,0,1,0,1.4,0c0,0.2,0,0.3,0,0.5s0,0.4,0,0.5c-0.5,0-1,0-1.4,0c0-0.2,0-0.3,0-0.5S680.9,264.6,680.9,264.4z M682.6,264.3
	c0.5,0,1,0,1.6,0c0,0.2,0,0.4,0,0.5c0,0.2,0,0.4,0,0.6c-0.5,0-1,0-1.6,0c0-0.2,0-0.4,0-0.5S682.6,264.5,682.6,264.3z M684.3,264.3
	c0.6,0,1.1,0,1.7,0c0,0.2,0,0.4,0,0.6s0,0.4,0,0.6c-0.6,0-1.2,0-1.7,0c0-0.2,0-0.4,0-0.6C684.3,264.7,684.3,264.5,684.3,264.3z
	 M677.8,264.4c0.4,0,0.8,0,1.2,0c0,0.2,0,0.3,0,0.5c0,0.1,0,0.3,0,0.5c-0.4,0-0.9,0-1.2,0c0-0.2,0-0.3,0-0.5
	C677.8,264.8,677.8,264.6,677.8,264.4z"/>
<path class="st0" d="M686.5,273c0.6,0,1.2,0,1.8,0c0,0.2,0,0.4,0,0.7c0,0.2,0,0.4,0,0.6c-0.6,0-1.2,0-1.8-0.1c0-0.2,0-0.4,0-0.6
	S686.5,273.2,686.5,273z M679.6,272.9c0.4,0,0.9,0,1.3,0c0,0.2,0,0.4,0,0.6s0,0.4,0,0.5c-0.5,0-0.9,0-1.3,0c0-0.2,0-0.4,0-0.5
	C679.6,273.3,679.6,273.1,679.6,272.9z M681.1,272.9c0.5,0,1,0,1.4,0c0,0.2,0,0.4,0,0.6s0,0.4,0,0.6c-0.5,0-1,0-1.4-0.1
	c0-0.2,0-0.4,0-0.5C681.1,273.3,681.1,273.1,681.1,272.9z M682.7,273c0.5,0,1,0,1.5,0c0,0.2,0,0.4,0,0.6s0,0.4,0,0.6
	c-0.5,0-1,0-1.5-0.1c0-0.2,0-0.4,0-0.6S682.7,273.2,682.7,273z M679.6,274.3c0.4,0,0.9,0,1.3,0.1c0,0.2,0,0.4,0,0.5
	c0,0.2,0,0.4,0,0.6c-0.5,0-0.9-0.1-1.3-0.1c0-0.2,0-0.4,0-0.5S679.6,274.4,679.6,274.3z M681.1,274.3c0.5,0,1,0,1.4,0.1
	c0,0.2,0,0.4,0,0.6s0,0.4,0,0.6c-0.5,0-1-0.1-1.4-0.1c0-0.2,0-0.4,0-0.5C681.1,274.7,681.1,274.5,681.1,274.3z M688.5,273
	c0.6,0,1.2,0,1.9,0c0,0.2,0,0.4,0,0.7c0,0.2,0,0.5,0,0.7c-0.7,0-1.3-0.1-1.9-0.1c0-0.2,0-0.4,0-0.6S688.5,273.3,688.5,273z
	 M690.6,273.1c0.7,0,1.4,0,2.1,0c0,0.2,0,0.5,0,0.7s0,0.5,0,0.7c-0.7,0-1.4,0-2.1-0.1c0-0.2,0-0.5,0-0.7S690.6,273.3,690.6,273.1z
	 M686.5,274.5c0.6,0,1.2,0.1,1.8,0.1c0,0.2,0,0.4,0,0.6s0,0.4,0,0.7c-0.6,0-1.2-0.1-1.8-0.1c0-0.2,0-0.4,0-0.6
	C686.5,274.9,686.5,274.7,686.5,274.5z M688.5,274.6c0.6,0,1.2,0.1,1.9,0.1c0,0.2,0,0.4,0,0.7s0,0.5,0,0.7c-0.7-0.1-1.3-0.1-1.9-0.1
	c0-0.2,0-0.4,0-0.6C688.5,275,688.5,274.8,688.5,274.6z M690.6,274.7c0.7,0,1.4,0.1,2.1,0.1c0,0.2,0,0.5,0,0.7c0,0.3,0,0.5,0,0.7
	c-0.7-0.1-1.4-0.1-2.1-0.1c0-0.2,0-0.5,0-0.7C690.6,275.1,690.6,274.9,690.6,274.7z M682.7,274.4c0.5,0,1,0.1,1.5,0.1
	c0,0.2,0,0.4,0,0.6s0,0.4,0,0.6c-0.5,0-1-0.1-1.5-0.1c0-0.2,0-0.4,0-0.6S682.7,274.6,682.7,274.4z"/>
<path class="st0" d="M658.3,221.9c1.4,0,2.5,1.6,2.5,3.5s-1.1,3.4-2.5,3.4s-2.5-1.5-2.5-3.4S656.9,221.9,658.3,221.9z M655.6,226.1
	c-0.5,0.1-1-0.1-1.4-0.3c0,0.3-0.1,0.7-0.2,1.1v1c0.7-0.1,1.2-0.5,2.1-0.4L655.6,226.1z M653.8,228c-0.3,0.1-0.6,0.1-0.9,0.1
	c0-0.6-0.1-1.2,0-1.9c-0.1-0.5-0.1-1.1,0.1-1.8c-0.7-0.9-0.7-1.7,0-2.7c1.2-0.1,2.4,0.8,2.7,2.2c-0.2,0.7-0.2,1.2-0.1,1.9
	c-0.6,0-1.1,0-1.6-0.5c0,0.5-0.1,1-0.2,1.4V228z M654.1,221.2l-0.7,0.3c1.6,0.3,2.2,1.1,2.5,2.1c0.5-1.3,1.4-2.1,3-1.9l-1.5-1.1
	C656.4,222,655.3,222,654.1,221.2z M656.2,220.2c-0.2,0.5-1,0.5-1.3,0.1l-0.5,0.7c1,0.7,2,0.6,2.7-0.5L656.2,220.2z M654.5,218.9
	l-0.1,0.2c-0.1,0.5,0.4,0.7,0.6,1.1c0.1,0.3,0.8,0.2,1,0c0.1-0.5,0.5-0.9,0.4-1.4l-0.1-0.3c0-0.2,0.1-0.5-0.1-0.7
	c-0.7-0.2-1.2,0-1.6,0.3C654.5,218.4,654.6,218.6,654.5,218.9z M654,218.4l0.3,0.4c0.1-0.3-0.1-0.5,0-0.8c0.5-0.5,1.2-0.6,1.9-0.5
	c0.3,0.2,0.3,0.5,0.3,0.8c0.1-0.1,0.2-0.2,0.2-0.6c0-0.4-0.2-0.3-0.3-0.5c-0.7-0.2-1.4-0.1-2.2,0.1C653.9,217.7,654.1,218,654,218.4
	z M656.3,217c-0.5-0.2-1.3-0.1-2.1,0.1c0.2-0.6,0.5-1.2,1.2-1.5c0,0.2,0.1,0.4,0.1,0.5c0.2-0.2,0.3-0.3,0.7-0.3
	c-0.1,0.2-0.2,0.4-0.1,0.5c0.2-0.1,0.5-0.1,0.6,0.1C656.5,216.6,656.3,216.8,656.3,217z M658.3,222.6c1.1,0,2,1.2,2,2.7
	s-0.9,2.7-2,2.7s-2-1.2-2-2.7C656.3,223.9,657.2,222.6,658.3,222.6z"/>
<path class="st0" d="M611.6,214.8c-6.1-0.4-11.8-1.1-16.7-2.6v6.6c1.6,0.9,1.6-0.9,2.3-1.3c-1.2-3.3,3-4,3.6-1.8
	C603.3,217.4,608,215.1,611.6,214.8z"/>
<path class="st0" d="M623.7,193.3c-0.3-0.1-0.7-0.2-0.7-0.7c0,0,0-0.1,0-0.3l0.1-0.4l2-0.4c0.1,0.2,0.2,0.5,0.3,0.7
	c0.2,0.5-0.1,0.7-0.4,0.9l3.1-0.6c-0.4-0.3-0.5-0.3-0.7-0.7l-1.3-2.1c0.1-0.1,0.2-0.3,0.2-0.5c-0.3,0-0.5-0.2-0.8-0.4l-0.9-1.4
	c-0.2-0.3-0.2-0.6-0.1-0.8l-2.9,0.6c0.2,0.2,0.3,0.4,0.3,0.8l-0.3,1.7c-0.1,0.3-0.4,0.5-0.6,0.6c0.1,0.3,0.2,0.4,0.4,0.4L621,193
	c-0.1,0.4-0.2,0.5-0.4,0.9L623.7,193.3z M623.3,190.4c0.1-0.7,0.1-1.3,0.2-2c0.3,0.6,0.6,1.2,0.9,1.7L623.3,190.4z M627.5,186
	c0.3,0.1,0.5,0.5,0.5,0.7l0.1,1.1c0,0.5-0.2,0.9-0.5,1.1c0.2,0.3,0.4,0.3,0.7,0.3l0.4,2.4c0.1,0.3-0.1,0.7-0.3,0.9l2.8-0.4
	c-0.3-0.1-0.5-0.4-0.5-0.7L630,187l0.6-0.1c0.5-0.1,1,0,1.1,0.6c0.1,0.3-0.1,0.6-0.4,0.7c-0.3,0.1-0.5,0-0.8-0.3
	c-0.8,1.9,1.8,2,2.7,0.9c0.2-0.3,0.3-0.6,0.3-0.9c0.1-0.2,0.2-0.5,0.4-0.6c-0.1-0.1-0.3-0.2-0.4-0.3c-0.3-1.3-1.2-1.7-2.4-1.5
	l-3.3,0.5H627.5z M634.3,185.1c0.3,0.1,0.4,0.5,0.5,0.7l0.1,1.1c-0.1,0.5-0.2,0.8-0.5,1.1c0.2,0.3,0.4,0.4,0.6,0.3l0.3,2.5
	c0.1,0.3-0.1,0.7-0.3,0.9l2.8-0.3c-0.3-0.1-0.5-0.4-0.5-0.8l-0.3-2.4c0.2,0,0.4-0.1,0.6-0.4c-0.3-0.2-0.5-0.5-0.7-0.9l-0.1-1.1
	c-0.1-0.4,0.1-0.7,0.3-0.9L634.3,185.1z M644.8,186.1c-0.1-0.5-0.1-1,0.4-1.3l-5.3-0.1c-0.1,0.6-0.5,1.2-1,1.6
	c0.3-0.1,0.8-0.2,1.1-0.2h2.4l-0.4,0.4c-0.4,0.2-0.7,0.3-1.1,0.3c-0.1,0.3,0,0.5,0.1,0.6l-2.4,2.4c0.1,0.5,0,1.1-0.4,1.4l5.8,0.1
	c0-0.6,0.5-1.2,1-1.6c-0.3,0.1-0.7,0.2-1,0.2h-3l1.6-1.7c0.3,0.2,0.5,0.1,0.8-0.2c-0.1-0.1-0.2-0.2-0.2-0.4L644.8,186.1z
	 M648.2,191.4c-0.3-0.2-0.7-0.3-0.5-0.8c0,0,0-0.1,0.1-0.3l0.1-0.4h2c0.1,0.3,0.1,0.5,0.2,0.7c0.1,0.5-0.3,0.6-0.6,0.8l3.1,0.1
	c-0.3-0.3-0.4-0.4-0.5-0.8l-0.9-2.4c0.1-0.1,0.3-0.2,0.3-0.5c-0.3-0.1-0.5-0.3-0.7-0.5l-0.6-1.6c-0.1-0.3-0.1-0.6,0.1-0.8h-3
	c0.1,0.2,0.2,0.5,0.1,0.8l-0.6,1.6c-0.2,0.3-0.5,0.5-0.7,0.5c0.1,0.3,0.2,0.4,0.3,0.5l-0.9,2.4c-0.2,0.4-0.3,0.5-0.6,0.8
	L648.2,191.4z M648.3,188.4c0.2-0.6,0.4-1.3,0.6-1.9c0.2,0.6,0.3,1.3,0.5,1.9H648.3z M655.8,187.8c0.3-0.7,0.7-1,1.4-0.9
	c0.5,0.1,0.8,0.3,0.9,0.7c-0.1,0.3-0.3,0.5-0.5,0.6l2.7,0.3c-0.2-0.1-0.3-0.4-0.3-0.7c-0.3-1.5-1.2-2.2-2.7-2.4
	c-1.6-0.2-2.9,0.3-3.4,1.8c-0.2,0.4-0.5,0.7-0.7,0.8c0.1,0.2,0.2,0.3,0.4,0.4c-0.1,0.7,0,1.4,0.3,1.9c0.5,1.2,1.4,1.5,2.7,1.7
	c1.5,0.2,2.6-0.3,3.1-1.8c0.1-0.3,0.3-0.4,0.5-0.5l-1.3-0.1c-0.5-0.1-0.9,0.2-1.1,0.5c-0.3,0.4-0.7,0.6-1.2,0.5c-1-0.1-1.1-1-1-1.8
	c0.2,0,0.4-0.1,0.6-0.3C656,188.3,655.9,188.1,655.8,187.8z M662,192.5c0.4,0.3,1,0.6,1.8,0.7c0.8,0.1,1.4,0.1,2,0
	c1.1-0.3,1.8-1.4,2-2.5c0.2,0,0.3-0.1,0.5-0.3c-0.2-0.3-0.4-0.5-0.4-0.9c0-1-0.5-1.7-1.2-2.3c-0.4-0.3-0.9-0.5-1.6-0.6
	s-1.3-0.1-1.8,0c-0.9,0.3-1.6,0.9-2,1.8c-0.2,0.3-0.4,0.6-0.7,0.7c0.1,0.3,0.2,0.4,0.4,0.4C660.8,190.6,661.1,191.8,662,192.5z
	 M663.6,188.3c0.6-0.5,1.6-0.3,2.1,0.4c0.1,0.2,0.2,0.4,0.2,0.7c-0.1,0.2-0.3,0.4-0.6,0.5c0.1,0.3,0.3,0.4,0.5,0.5
	c-0.2,0.9-0.7,1.6-1.7,1.4c-1-0.2-1.3-1-1.1-2c0.2,0,0.4-0.1,0.6-0.3c-0.2-0.2-0.3-0.4-0.4-0.7C663.3,188.6,663.5,188.4,663.6,188.3
	z"/>
<path class="st0" d="M700,203.8c-0.2-0.5-0.4-1-0.7-1.5c-1.4,0.5-2.7,1-4.2,1.4c1.4,5,1.2,8.6,7.2,8.7
	C701.7,208.4,701.5,207.6,700,203.8z M691.1,192.1c-0.9-0.4-1.7-0.7-2.6-0.8c0.3,0.5,0.5,1,0.7,1.5
	C689.8,192.6,690.4,192.4,691.1,192.1z M701.8,170.4c-0.2-0.4-0.4-0.8-0.6-1.1c0.5-0.4,0.8-0.9,1-1.4c2.3,1,1.4,0.1,4.8,2
	c1.7,0.9,2.4,1.6,4,2.7c2.4,1.8,4.6,3.5,9.8,2.4c-3.4-4.5-10.3-9.6-14.8-10.9c0.8,1.4,1.5,2.6,1.1,3.9c-1.8,0.4-3.1-0.2-4.8-0.2
	c0.1-0.3,0.1-0.6,0.2-0.9c1,0.2,2.2,0.3,3.8,0.3c-0.5-2-2.5-4.2-4.8-6c0.2-0.5,0.3-1,0.3-1.5c1.3,0.4,3,0.5,5.4,0.2
	c-1.9-4.3-6.6-5.9-9.4-8c-0.3-2.3-1.8-3.7-5.3-3.9c-0.5-3-2.3-4.7-6.9-3.6c3.5-4.7,9.4-5,18.1-0.7c19.5,12.9,30,31.8,35.1,54.3
	c2.5,14.6,1,28.9-3.7,43.6c0.2,0.7,0.3,1.4,0.3,2.2c0.5-1.3,1-2.2,1.9-3.1c14.4-44.9,3.5-99.1-43.3-107.9
	c-12.4-0.5-16.1,7.1-10.8,14.1c21.7,22.2,4.1,26.4-4.6,28.3c-5.3,1.6-7.4,11.1-17.7,6l0.2,1.1c6.7,1.2,12.9,3.1,16.4,5.6
	c0.5-0.3,1-0.6,1.4-0.9c1.5,4.4,4.3,5.4,7,6.9c0.7-0.2,1.3-0.4,2-0.6c-0.9-2.2-2.6-4.7-4.2-6c0.3,0.2,0.7,0.3,1.1,0.6
	c1,0.7,1.4,1.2,2.3,1.8c1.2,0.9,4.6,1.5,5.9,1.3c-0.5-2.4-3.6-5.1-6.3-6.8c0.1-0.3,0.2-0.6,0.3-0.9c3.6,2.2,4.8,4.4,9.8,3.9
	c-0.9-1.9-3-4.2-5.3-6.1c0.3-0.2,0.6-0.4,0.9-0.6c1.1,0.7,2.5,1,5.2,0.4c-0.6-1.4-1.6-2.7-2.7-3.9c0.6-0.1,1.1-0.3,1.6-0.6
	c0.6,0.1,1.5-0.1,3.4-0.7c-0.5-0.7-0.9-1.2-1.2-1.8c0.2-0.5,0.3-1,0.3-1.6l4.3,2.4c1.5,0.9,3.1,1.8,4.6,3c3.1,2.4,4.5,4.4,12,2.2
	c-0.8-0.5-1.5-0.7-2.4-1.2c-1.9-1-4.3-3.1-6-4.5c-6.3-4.9-5.6-3.3-8.6-5.2c-0.5,1.4,2,2.4-3.9,2.6c0-0.3,0-0.6-0.1-0.9
	C699.6,170.8,700.6,170.6,701.8,170.4z M657.9,181.8c-0.6-0.8-0.8-1.8-1.4-2.7c-0.1,0.8-0.3,1.6-0.7,2.4
	C656.5,181.6,657.2,181.7,657.9,181.8z M651.4,181l-0.1-0.3v0.2L651.4,181z M637.6,180.9l-0.1-0.2l-0.1,0.3L637.6,180.9z M628,182.3
	c-1.4-1.4-2.6-3.3-3.3-5.4c0.2,2.2,0.6,4,1.1,5.5c-8,1.8-11-5.9-15.6-7.3c-8.8-1.9-26.4-6.2-4.6-28.3c5.4-6.9,1.6-14.5-10.7-14.1
	c-46.7,8.8-57.7,62.7-43.5,107.5c1,0.9,1.8,2.2,2.4,3.7c0-0.6,0.1-1.2,0.2-1.7c-4.8-14.9-6.4-29.5-3.9-44.3
	c5.1-22.5,15.6-41.4,35.1-54.3c8.6-4.3,14.6-4,18.1,0.7c-4.5-1-6.4,0.6-6.9,3.6c-3.5,0.2-5,1.6-5.3,3.9c-2.8,2.1-7.5,3.7-9.4,8
	c2.4,0.4,4.1,0.2,5.4-0.2c0.1,0.4,0.2,0.9,0.3,1.5c-2.3,1.8-4.3,4.1-4.8,6c1.5,0.1,2.7-0.1,3.8-0.3c0,0.3,0.1,0.6,0.2,0.9
	c-1.7,0-3,0.5-4.8,0.2c-0.4-1.2,0.3-2.5,1.1-3.9c-4.5,1.3-11.4,6.3-14.8,10.9c5.2,1,7.4-0.6,9.8-2.4c1.6-1.2,2.2-1.8,3.9-2.7
	c3.5-1.9,2.6-1,4.8-2c0.2,0.5,0.5,1,1,1.4c-0.2,0.3-0.4,0.7-0.6,1.1c1.2,0.2,2.2,0.4,3,0.4c0,0.3-0.1,0.6-0.1,0.9
	c-6-0.3-3.4-1.2-3.9-2.6c-3,1.8-2.3,0.3-8.6,5.2c-1.8,1.4-4.1,3.5-6,4.5c-0.9,0.5-1.6,0.7-2.4,1.2c7.5,2.2,8.9,0.1,12-2.2
	c1.6-1.2,3.1-2.1,4.6-3l4.3-2.4c0,0.6,0.1,1.1,0.3,1.6c-0.4,0.5-0.8,1.1-1.2,1.8c1.9,0.5,2.8,0.7,3.4,0.7c0.5,0.2,1,0.4,1.5,0.6
	c-1.1,1.2-2,2.5-2.7,3.9c2.7,0.6,4,0.3,5.2-0.4c0.3,0.2,0.6,0.4,0.9,0.6c-2.3,1.8-4.4,4.1-5.3,6.1c5,0.5,6.3-1.6,9.8-3.9
	c0.1,0.3,0.2,0.7,0.3,0.9c-2.7,1.7-5.8,4.4-6.3,6.8c1.2,0.3,4.6-0.4,5.9-1.3c0.9-0.6,1.3-1.1,2.3-1.8c0.4-0.3,0.8-0.4,1.1-0.6
	c-1.6,1.3-3.3,3.7-4.2,5.9c0.7,0.2,1.4,0.5,2,0.7c2.6-1.4,5.4-2.4,6.9-6.8c0.2,0.5,0.6,0.9,1,1.3C614.4,185.6,620.9,183.6,628,182.3
	z M715.7,207.4L715.7,207.4l-0.7-1.1c-0.9,0.3-1.8,0.7-2.7,1l0.4,0.6C713.6,207.6,714.6,207.4,715.7,207.4z M709.9,199.3
	c-0.3-0.3-0.5-0.5-0.7-0.8c-0.9,0.3-1.9,0.7-2.9,1.1c0.3,0.3,0.6,0.6,0.9,0.9C708,200.1,709,199.7,709.9,199.3z M721.6,229.6
	c0.4,1.4,0.8,2.9,1.1,4.3l0.1,0.3c0.5,0.9,0.9,2,0.8,3.2c0,0.2,0,0.3-0.1,0.5c0.2,0.8,0.5,1.5,0.8,2c1.1,1.6,3,3.4,5.1,3.7
	c-1.4-6.5-2-9.8-3.9-14.9C724.5,229.5,723.1,229.8,721.6,229.6z M684.2,194.3c-1.1-0.6-2.4-1.4-3.3-1.4c0.5,0.5,0.9,1.1,1.4,1.8
	C682.9,194.7,683.5,194.5,684.2,194.3z M688.1,205.5l0.3,0.7c0.6,1.2,1.1,2.5,1.5,3.6c1.7-0.4,3.5-0.9,5.2-1.4v8.2
	c0.7,0.2,1.5,0.3,2.5,0.3c-1.8-4.8-2.2-8.8-3.6-13C692.1,204.6,690.1,205.1,688.1,205.5z M710.3,268.6c0.2-0.6,0.3-1.1,0.5-1.7
	c0.2-1.4,0.4-2.4,0.6-3.4c-0.4-0.2-0.9-0.4-1.3-0.6C710.3,264.8,710.5,266.7,710.3,268.6z M708.2,228c-1.4-5.1-3-10-5-14.7
	c-5.7-0.4-3.1-0.9-6-1.3c3.3,9.4,5.1,13.7,6.5,20.4L708.2,228z M704.8,238.1c0.2,1.4,0.4,3,0.7,4.8l0.2,1.6c1-1.1,2.2-2.3,3.7-3.5
	C708.2,239.7,706.3,239,704.8,238.1z M718.2,257.6v-1.2c-0.3,0-0.7,0-1-0.1c-0.9-2.1-1.3-3.2-0.3-5.3c0.2-0.5,0.5-1,0.9-1.4
	c-0.1-0.6-0.1-1-0.1-1.4l-0.1-0.9c-1.4,1.3-2.9,2.6-4.1,4.1c-0.1,0.2-0.3,0.5-0.4,0.7c0,0.9,0,2,0,2.8c0.5,1,1.4,1.9,2.9,2.4
	C716.8,257.6,717.6,257.6,718.2,257.6z M712.5,223.8c-0.3-0.8-0.5-1.6-0.8-2.5c-1-0.2-2-0.7-3.1-1.4c-2-1.2-4.3-5.3-0.7-8.7
	l-0.4-0.9l-0.1-0.3c-1.3,1.1-2.3,2.4-2.6,4.1c1.7,3.7,3.2,8.2,4.4,12.9L712.5,223.8z M704.3,206.3c-0.6-0.1-1.3-0.2-2.2-0.3
	c1.3,4.5,0.3,2.9,2.3,7.3l0.2,0.5L704.3,206.3z M708.2,209.5l0.4,1c0.8-0.9,1.8-1.6,3-2.1l-0.4-0.6
	C710.2,208.3,709.1,208.8,708.2,209.5z M712.8,221.5l0.5,1.5l1-0.9c-1.2,5.6,3.9,7.3,7,10.3c-0.3-1-0.5-2-0.8-3
	c-1-0.3-1.9-0.8-2.7-1.6c-2.3-2.1-2.6-3.7-2.6-6.5C714.4,221.5,713.6,221.6,712.8,221.5z M718.5,246.3c0.1,0.7,0.1,1.5,0.2,2.3
	c0.7-0.5,1.4-0.8,2.1-0.8l0,0c1.1,0,2,0.2,2.9,0.6c-0.1-2.5-0.3-5.2-0.7-8C722,242.8,720.3,244.6,718.5,246.3z M722.1,255.4l0.1,0.1
	c0.1-0.1,0.2-0.3,0.3-0.4C722.4,255.3,722.2,255.3,722.1,255.4z M705.5,201.2c-0.2-0.3-0.4-0.7-0.7-1c-1.4,0.5-2.9,1.1-4.5,1.7
	c0.5,1,0.9,2,1.3,2.9c0.7,0.2,1.6,0.4,2.6,0.6l-0.2-3.7C704.5,201.6,704.9,201.4,705.5,201.2z M695.1,190.6
	c-0.4-0.3-0.8-0.5-1.2-0.7c0,0.5,0.1,0.8,0,1.2L695.1,190.6z M696.5,184.4c3,5.2,0.4,3.5-3.9,3.3c0.5,0.5,2.4,1.7,3.5,2.5
	c2.1-0.8,4.1-1.6,6.1-2.3C700,186.2,697.8,184.9,696.5,184.4z M732.2,233.2c-1.3-5.7-3-11.5-5.5-17l1.1,6.5
	c-1.6-2.3-3.1-3.2-4.6-3.3l0.1,0.3c0.7,0.3,1.4,0.7,2,1.3c2.2,2,2.6,4.9,1.2,6.9C727.1,230.2,728.3,232.9,732.2,233.2z M722.8,208.9
	c-1-1.8-2-3.2-3-4.5c-1,0.5-2.3,1-3.8,1.5c0.3,0.5,0.6,0.9,0.9,1.4C719,207.4,721.1,207.9,722.8,208.9z M714,197.9l-0.7-0.7
	c-0.9,0.3-2,0.6-3.1,0.9c0.2,0.2,0.5,0.5,0.7,0.7C711.9,198.5,713,198.2,714,197.9z M731.8,215.6c-2.1-6.2-5.3-12.8-10.3-17.8
	c0.1,0.9,0.2,1.7,0.2,2.7c0.1,0.5,0.2,1.1,0.2,1.8c-0.1,0.7-0.5,1.2-1.3,1.7c1.8,2.6,3.2,4.9,4.5,6.8c0.3,0.3,0.5,0.6,0.7,1
	C727.4,214,729.2,215.5,731.8,215.6z M714.6,197l0.7,0.6c2.1-0.4,4-0.4,5.2,0.6C719.2,196.8,717.2,196.5,714.6,197z M698.8,181.3
	c-1.4,0.8-3,0.6-4.6,0.7c1.8,1.3,4.4,2.2,9,5.6c1.8-0.7,3.6-1.2,5.2-1.6c-0.3-0.3-0.7-0.6-1-0.9c-1.8-1.7-5.1-4.4-7.3-5.5
	c-1-0.5-1.6-0.6-2.5-1L698.8,181.3z M738.4,202.8c-2.2-4.2-7.7-9.2-11.1-11.8c-2.1-1.6-4.2-3.1-6.3-4.4l-4.9-2.9
	c-0.4-0.2-0.5-0.3-0.9-0.5l-1-0.4c1.2,1.3,2.5,1.5,3.5,2.8l-2.8,0.8c0.7,0.4,1.4,0.8,2,1.4l4.1,2.7c1.9,1.5,3.7,2.9,5.5,4.7
	C731.6,200.1,731.3,203.4,738.4,202.8z M733.6,207.4c-1.8-5.9-8.5-13.2-14.9-17.5c1.1,1.6,1.9,3.7,2.4,6.1c1.8,1.6,3.5,3.8,4.5,5.1
	c1.2,1.6,2,3,3.1,4.6C729.8,207.2,731.9,207.6,733.6,207.4z M696.7,177.1c1.3,0.8,3.2,1.3,5,2.3c4.3,2.4,6,5.3,8.2,5.8
	c1.4,0.3,4.3,0.5,5.7-0.1c-2.2-1.2-5.3-4.1-7.6-6c-1.5-1.2-6.3-4.7-8-5l1.5,2L696.7,177.1z M734.2,192.8c-1.4-4.6-3.7-7-7.5-9.1
	c-7.9-4.3-5.6-2.6-11.8-2.2c1.2,1,3.4,1.9,5.1,2.9C725.2,187.7,730.1,192.5,734.2,192.8z M722.6,175.7c-3.4,0.8-4.4,0.3-7.1,0.3
	c1.2,1.1,2.7,2.1,4.2,2.6c2.3,0.8,1,0,1.8,1.2c1.2,1.8,7.1,3.3,11,3.4c-1.5-2.8-3.3-4.8-5.5-6.8c-1.4-1.3-4.6-4.7-7-3.9L722.6,175.7
	z M724.5,170.2c-3.3-1.3-6.6-4.5-10-6.8c-6.9-4.6-5.7-2.7-8.6-2.4c-1,0.1-2.2-0.1-3.2-0.1c2.5,2.3,1.5,1.3,4.3,2.5
	c3.7,1.5,9.6,5.4,12.1,8.2C721.4,171.1,722.3,171,724.5,170.2z M723.5,166.6c-3.3-4.5-7.9-7.8-13.1-10.1c-2.5-1.1-1.8-1.5-5.6-1.2
	c4.4,4.5,2.5,3.6,6.7,5.3c1.4,0.6,1.3,0.6,2.3,1.3C717.6,164.4,719,166.5,723.5,166.6z M708.6,153.8c-2-2.6-8.7-5.8-12.4-5.8
	c1.9,1.1,2.6,2.4,2.6,3.9l3.7,1.8C704,154.7,706.3,154.5,708.6,153.8z M705.6,149.4c-1.5-1.7-7.4-5.9-13.7-5.2
	c1.3,1.2,1.5,2.2,1.2,3.3C697.6,146.3,703.2,149.6,705.6,149.4z M583.2,149.4c1.5-1.7,7.4-5.9,13.7-5.2c-1.3,1.2-1.5,2.2-1.2,3.3
	C591.2,146.3,585.6,149.6,583.2,149.4z M580.1,153.8c2.1-2.6,8.7-5.8,12.4-5.8c-1.9,1.1-2.6,2.4-2.6,3.9l-3.7,1.8
	C584.8,154.7,582.5,154.5,580.1,153.8z M565.3,166.6c3.3-4.5,7.9-7.8,13.1-10.1c2.5-1.1,1.8-1.5,5.6-1.2c-4.4,4.5-2.5,3.6-6.7,5.3
	c-1.4,0.6-1.3,0.6-2.3,1.3C571.2,164.4,569.7,166.5,565.3,166.6z M564.3,170.2c3.3-1.3,6.6-4.5,10-6.8c6.9-4.6,5.7-2.7,8.6-2.4
	c1.1,0.1,2.2-0.1,3.2-0.1c-2.5,2.3-1.5,1.3-4.3,2.5c-3.7,1.5-9.6,5.4-12.1,8.2C567.4,171.1,566.5,171,564.3,170.2z M592,177.1
	c-1.3,0.8-3.2,1.3-4.9,2.3c-4.3,2.4-6,5.3-8.3,5.8c-1.4,0.3-4.3,0.5-5.7-0.1c2.2-1.2,5.3-4.1,7.6-6c1.5-1.2,6.3-4.7,8-5l-1.5,2
	L592,177.1z M590,181.3c1.4,0.8,3,0.6,4.6,0.7c-1.8,1.3-4.4,2.2-8.9,5.5c-1.9-0.7-3.7-1.2-5.3-1.6c0.3-0.3,0.6-0.6,1-0.9
	c1.8-1.7,5.1-4.4,7.3-5.5c1-0.5,1.7-0.6,2.5-1L590,181.3z M592.3,184.4c-3,5.2-0.4,3.5,3.9,3.3c-0.5,0.5-2.3,1.7-3.5,2.5
	c-2.1-0.8-4.1-1.6-6.1-2.3C588.9,186.2,591,184.9,592.3,184.4z M583.4,201.1c0.2-0.3,0.4-0.7,0.6-1c1.4,0.5,2.9,1.1,4.5,1.7
	c-0.5,1-1,2.1-1.3,3c-0.6,0.2-1.4,0.4-2.4,0.6l0.2-3.7C584.5,201.6,583.9,201.4,583.4,201.1z M593.8,190.5c0.4-0.3,0.7-0.5,1.1-0.7
	c0,0.5,0,0.7,0,1.1L593.8,190.5z M588.8,203.8c0.2-0.5,0.4-1,0.7-1.6c1.3,0.5,2.7,1,4.2,1.4c-1.5,5-1.2,8.7-7.2,8.8
	C587.1,208.4,587.3,207.6,588.8,203.8z M597.8,192.1c0.8-0.4,1.7-0.7,2.6-0.8c-0.3,0.5-0.5,1-0.7,1.4
	C599,192.5,598.4,192.3,597.8,192.1z M604.7,194.3c1-0.6,2.4-1.4,3.2-1.3c-0.4,0.5-0.9,1.1-1.3,1.8
	C605.9,194.6,605.3,194.5,604.7,194.3z M600.7,205.5l-0.4,0.8c-0.7,1.6-1.3,3.1-1.9,4.6c-1.6-0.4-3.2-0.8-4.8-1.3v7.2
	c-0.7,0.2-1.6,0.3-2.5,0.3c1.7-4.8,2.2-8.8,3.6-13C596.7,204.5,598.7,205.1,600.7,205.5z M566.1,175.7c3.4,0.8,4.4,0.3,7.1,0.3
	c-1.2,1.1-2.7,2.1-4.2,2.6c-2.3,0.8-1,0-1.8,1.2c-1.2,1.8-7.1,3.3-11,3.4c1.5-2.8,3.3-4.8,5.5-6.8c1.4-1.3,4.6-4.7,7-3.9
	L566.1,175.7z M554.6,192.8c1.5-4.6,3.7-7,7.5-9.1c8-4.3,5.6-2.6,11.8-2.2c-1.2,1-3.4,1.9-5.1,2.9
	C563.5,187.7,558.7,192.5,554.6,192.8z M550.4,202.8c2.2-4.2,7.7-9.2,11.1-11.8c2.1-1.6,4.2-3.1,6.3-4.4l5-2.9
	c0.4-0.2,0.5-0.3,0.9-0.5l1-0.4c-1.2,1.3-2.5,1.5-3.5,2.8l2.9,0.8l-6.2,4c-2,1.5-3.7,2.9-5.6,4.7
	C557.2,200.1,557.5,203.4,550.4,202.8z M555.1,207.4c1.9-6,8.8-13.5,15.3-17.8c-1.1,1.6-2,3.7-2.5,6.1c-1.8,1.6-3.7,3.9-4.8,5.4
	c-1.2,1.6-1.9,3-3.1,4.6C559,207.2,556.9,207.6,555.1,207.4z M557,215.6c2.1-6.3,5.4-13,10.6-18.1c-0.1,0.9-0.2,1.9-0.3,2.9
	c-0.1,0.5-0.2,1.1-0.1,1.8c0,0.6,0.5,1.1,1.1,1.6C563.8,210.2,562,215.3,557,215.6z M574.2,197l-0.7,0.6c-2-0.4-3.8-0.3-5,0.6
	C569.8,196.8,571.7,196.5,574.2,197z M556.6,233.2c1.3-5.9,3.2-12,5.8-17.7l-1.2,7.2c1.5-2.2,2.9-3.1,4.4-3.3l-0.2,0.5
	c-0.6,0.3-1.2,0.7-1.7,1.2c-2.1,1.9-2.6,4.7-1.3,6.7C561.7,230,560.6,232.9,556.6,233.2z M565.9,209.1c1.1-1.9,2.1-3.4,3.1-4.8
	c1,0.5,2.3,1,3.7,1.6c-0.3,0.5-0.6,1-0.9,1.5C569.7,207.4,567.6,208,565.9,209.1z M574.8,197.9l0.7-0.7c1,0.2,2,0.5,3.1,0.9
	c-0.2,0.2-0.5,0.5-0.7,0.7C576.9,198.5,575.8,198.1,574.8,197.9z M573.1,207.3L573.1,207.3l0.7-1.1c0.9,0.3,1.8,0.7,2.7,1l-0.4,0.7
	C575.2,207.6,574.1,207.4,573.1,207.3z M578.9,199.2c0.3-0.3,0.5-0.6,0.7-0.8c1,0.3,1.9,0.7,3,1.1c-0.3,0.3-0.6,0.5-0.9,0.9
	C580.8,200,579.9,199.6,578.9,199.2z M567.2,229.6c-0.4,1.4-0.8,2.9-1.1,4.3c-0.1,0.3-0.2,0.7-0.2,1c-0.3,0.7-0.5,1.5-0.5,2.4
	c-0.3,1-0.5,2-1,2.6c-1.1,1.6-2.9,3.4-5.1,3.7c1.4-6.6,2-9.8,3.9-15.1C564.3,229.4,565.7,229.8,567.2,229.6z M580.6,209.4l-0.4,1
	c-0.9-0.9-1.9-1.5-3-2l0.4-0.6C578.7,208.2,579.7,208.7,580.6,209.4z M576,221.5l-0.4,1.3l-0.8-0.8c1.3,5.8-4.2,7.4-7.3,10.6
	c0.3-1.1,0.6-2.1,0.9-3.2c1-0.3,2-0.8,2.9-1.6c2.3-2.1,2.5-3.7,2.6-6.5C574.5,221.4,575.2,221.5,576,221.5z M570.3,246.1
	c-0.1,0.7-0.1,1.5-0.2,2.3c-0.6-0.4-1.3-0.6-1.9-0.6l0,0c-1.2,0-2.2,0.3-3.1,0.7c0-2.7,0.3-5.6,0.8-8.5
	C566.7,242.5,568.4,244.4,570.3,246.1z M566.8,255.3L566.8,255.3l-0.3-0.2C566.6,255.2,566.7,255.3,566.8,255.3z M570.5,257.6v-1.2
	c0.4,0,0.8,0,1.2-0.1c0.9-2.1,1.3-3.2,0.3-5.3c-0.3-0.6-0.6-1.2-1-1.6c0-0.5,0.1-0.9,0.1-1.2l0.1-1.1c1.5,1.4,3.1,2.7,4.3,4.3
	l0.1,0.3c0,1.2,0,2.6,0,3.7c-0.5,0.9-1.4,1.6-2.7,2C572.1,257.6,571.3,257.6,570.5,257.6z M576.4,223.7c0.3-0.7,0.5-1.5,0.7-2.3
	c1.1-0.2,2.2-0.6,3.3-1.4c2-1.2,4.3-5.4,0.5-8.8l0.3-0.8l0.1-0.4c1.3,1,2.3,2.3,2.7,3.9c-1.7,3.8-3.2,8.3-4.5,13L576.4,223.7z
	 M584.7,206.2c0.5-0.1,1.2-0.2,2-0.2c-1.3,4.5-0.3,2.9-2.3,7.3L584.7,206.2z M578.8,270L578.8,270c-0.1-1-0.6-2-0.8-3.1
	c-0.3-1.3-0.4-2.4-0.6-3.3c0.5-0.2,1-0.4,1.5-0.7C578.6,265.2,578.5,267.6,578.8,270z M580.6,227.9c1.4-5,3-9.9,4.9-14.5
	c5.7-0.4,3.1-0.9,6-1.3c-3.2,9.3-5,13.6-6.5,20.2L580.6,227.9z M584,238.2c-0.2,1.4-0.4,2.9-0.6,4.6l-0.1,1.4c-0.9-1-2-2.2-3.5-3.3
	C580.8,239.8,582.5,239.1,584,238.2z"/>
</svg>
