<?xml version="1.0" encoding="UTF-8"?>
<!DOCTYPE svg PUBLIC "-//W3C//DTD SVG 1.1//EN" "http://www.w3.org/Graphics/SVG/1.1/DTD/svg11.dtd">
<!-- Creator: CorelDRAW X7 -->
<svg xmlns="http://www.w3.org/2000/svg" xml:space="preserve" width="279.4mm" height="215.9mm" version="1.1" style="shape-rendering:geometricPrecision; text-rendering:geometricPrecision; image-rendering:optimizeQuality; fill-rule:evenodd; clip-rule:evenodd"
viewBox="0 0 27940 21590"
 xmlns:xlink="http://www.w3.org/1999/xlink">
 <defs>
  <style type="text/css">
   <![CDATA[
    .fil4 {fill:#003399}
    .fil3 {fill:#B3B3B3}
    .fil5 {fill:#FF9933}
    .fil2 {fill:#003399;fill-rule:nonzero}
    .fil1 {fill:#00ADFE;fill-rule:nonzero}
    .fil0 {fill:#FF6600;fill-rule:nonzero}
   ]]>
  </style>
 </defs>
 <g id="Capa_x0020_1">
  <metadata id="CorelCorpID_0Corel-Layer"/>
  <g id="_898798432">
   <path class="fil0" d="M15315 9569l1257 -3765 1885 0 -911 2727c-478,162 -962,364 -1444,605 -271,136 -534,281 -787,433z"/>
   <path class="fil1" d="M19305 13900l1884 0 -1851 -5544c-529,160 -1081,415 -1632,757l1599 4787z"/>
   <path class="fil2" d="M15753 13900l-1880 0c358,-1191 1159,-2487 2313,-3595 345,-332 702,-628 1064,-886l-1497 4481z"/>
   <path class="fil3" d="M17349 11212l291 0c-27,-33 -45,-60 -48,-102l-5 -90c-27,-36 -135,-59 -184,1l-5 94c-6,46 -19,60 -49,97z"/>
   <path class="fil3" d="M17499 11222c51,0 100,4 148,13l18 0c0,-14 -1,-20 0,-33 12,-2 8,0 29,-1l1 -41 -32 -25 -4 -62 -39 -2 -4 -73c-65,-54 -183,-69 -266,12l-3 60 -28 0 -8 63 -24 23 0 42c12,3 29,1 37,3 -2,14 0,26 0,34 9,0 18,0 27,0 48,-9 98,-13 148,-13zm-370 -572c45,18 457,194 262,245 20,19 41,30 62,34 -50,8 -97,35 -128,82l-5 0 0 -38c0,-22 -17,-39 -39,-39l0 0c-22,0 -39,17 -39,39 0,32 -2,62 -3,95l44 0 0 23 -12 27 -15 22 -8 26 -1 51 5 5c-39,12 -77,26 -112,43l0 1 0 40c-42,21 -83,46 -120,74l0 -66 39 0 0 -138 -138 0 0 136c-10,-5 -21,-7 -33,-7 -46,0 -82,37 -82,82 0,45 36,82 82,82 15,0 29,-4 42,-12 -35,35 -66,72 -93,112l0 -83 -27 0 0 76 -18 0 0 78c-63,115 -99,247 -99,387 0,445 361,806 806,806 445,0 806,-361 806,-806 0,-152 -42,-295 -116,-417l0 -122 23 0 0 46 32 0 0 -80 -84 0c21,-15 34,-40 34,-67 0,-40 -29,-74 -67,-81l0 -128 -13 0 -13 0 -137 0 -26 0 0 27 0 147c-28,-19 -58,-36 -89,-51l0 -35c-38,-17 -77,-32 -117,-45l0 0 0 -72 -26 -35 -8 -44 37 0c1,-33 0,-63 0,-96 0,-20 -17,-37 -37,-37l0 0c-21,0 -37,17 -37,37l0 37 -1 0c-39,-51 -99,-80 -160,-84 36,-12 58,-52 43,-112 7,-1 12,-8 16,-15 5,22 24,22 37,33 7,-66 -20,-117 -93,-63 -77,-92 -238,-132 -374,-120zm469 105c17,25 12,61 24,72 33,30 90,-11 161,-54 45,-27 90,-38 119,-43 -102,-21 -209,-22 -304,25zm-605 645l0 -86 -68 0c27,13 45,41 45,73 0,17 -5,32 -14,45 12,-11 25,-21 37,-32zm1053 35c-10,-13 -16,-30 -16,-48 0,-42 31,-76 71,-81l0 -101 -137 0 0 164c29,20 56,42 82,66zm-547 -31c344,0 623,279 623,623 0,344 -279,623 -623,623 -344,0 -623,-279 -623,-623 0,-344 279,-623 623,-623z"/>
   <path class="fil3" d="M18299 13642c29,-9 58,-18 88,-26 55,109 109,214 160,315 49,98 97,192 144,282 -45,0 -89,0 -133,0 -39,-87 -80,-177 -122,-270 -44,-97 -90,-197 -137,-301zm-1852 571c-44,0 -87,0 -131,0 44,-90 91,-184 139,-282 50,-101 102,-206 156,-315 29,8 59,17 88,26 -46,104 -90,204 -133,301 -41,93 -81,183 -119,270z"/>
   <path class="fil3" d="M16617 13902c293,0 587,0 880,0 293,0 586,0 880,0 11,30 22,59 33,89 11,28 22,57 33,85 -314,0 -629,0 -943,0 -314,0 -628,0 -942,0 9,-28 19,-57 29,-85 9,-30 20,-59 30,-89z"/>
   <path class="fil3" d="M17524 11472c58,2 113,14 165,32l1 -3c5,-13 20,-19 33,-13l0 0c13,5 19,20 13,32l-1 3c51,24 98,56 139,94l3 -3c10,-9 26,-9 35,0l0 0c10,10 10,26 0,36l-2 2c38,41 69,88 93,140l3 -2c13,-5 28,1 33,14l0 0c5,13 -1,27 -14,32l-3 2c19,51 30,107 33,164l3 0c14,0 25,12 25,25l0 0c0,14 -11,25 -25,25l-3 0c-3,58 -14,113 -33,165l3 1c13,5 19,20 14,33l0 0c-5,13 -20,19 -33,13l-3 -1c-24,51 -55,98 -93,140l2 2c10,10 10,26 0,35l0 0c-9,10 -25,10 -35,0l-3 -2c-41,38 -88,69 -139,93l1 3c6,13 0,28 -13,33l0 0c-13,5 -28,-1 -33,-13l-1 -4c-52,19 -107,30 -165,33l0 4c0,13 -11,25 -25,25l0 0c-13,0 -25,-12 -25,-25l0 -4c-57,-3 -113,-14 -164,-33l-2 4c-5,12 -20,18 -32,13l0 0c-13,-5 -19,-20 -14,-33l1 -3c-51,-24 -98,-55 -139,-93l-2 2c-10,10 -26,10 -36,0l0 0c-10,-9 -10,-25 0,-35l3 -2c-38,-42 -70,-89 -94,-140l-3 1c-12,6 -27,0 -32,-13l0 0c-6,-13 0,-28 13,-33l3 -1c-19,-52 -30,-107 -32,-165l-4 0c-14,0 -25,-11 -25,-25l0 0c0,-13 11,-25 25,-25l4 0c2,-57 13,-112 32,-164l-3 -2c-13,-5 -19,-19 -13,-32l0 0c5,-13 20,-19 32,-14l3 2c24,-52 56,-99 94,-140l-3 -2c-10,-10 -10,-26 0,-36l0 0c10,-9 26,-9 36,0l2 3c41,-38 88,-70 139,-94l-1 -3c-5,-12 1,-27 14,-32l0 0c12,-6 27,0 32,13l2 3c51,-18 107,-30 164,-32l0 -4c0,-14 12,-25 25,-25l0 0c14,0 25,11 25,25l0 4zm-25 354c111,0 202,90 202,201 0,112 -91,202 -202,202 -111,0 -201,-90 -201,-202 0,-111 90,-201 201,-201z"/>
   <path class="fil3" d="M18325 13133l0 389 -793 247 0 -422 71 -19 0 353c23,-7 46,-13 69,-19l0 -353 65 -18c0,118 0,235 0,353 21,-6 42,-12 62,-18l0 -352 60 -16 0 0c0,117 0,235 0,352 19,-5 38,-11 57,-16 0,-114 0,-229 0,-344l0 -8 54 -15 0 16c0,112 0,224 0,336 18,-5 35,-10 52,-14 0,-110 0,-220 0,-329l0 -23 50 -14 0 30c0,107 0,215 0,322 16,-4 32,-9 47,-13 0,-105 0,-211 0,-316l0 -36 46 -12 0 42c0,103 0,206 0,309 15,-4 30,-8 44,-12 0,-101 0,-202 0,-303l0 -48 43 -12 0 54c0,99 0,198 0,297 14,-4 27,-7 40,-11 0,-97 0,-195 0,-292l0 -59 21 -6 12 0zm-859 216l-70 -19 0 351c-24,-7 -47,-13 -69,-19l0 -351 -65 -19c0,117 0,235 0,352 -21,-6 -42,-12 -63,-18l0 -351 -59 -16 0 351c-19,-5 -38,-11 -57,-16 0,-114 0,-229 0,-344l0 -7 -54 -15 0 15c0,112 0,224 0,336 -18,-5 -35,-10 -52,-14 0,-110 0,-220 0,-329l0 -22 -50 -14 0 29c0,107 0,215 0,322 -16,-4 -32,-9 -48,-13 0,-105 0,-211 0,-316l0 -35 -46 -13 0 42c0,103 0,206 0,309 -15,-4 -29,-8 -44,-12 0,-101 0,-202 0,-303l0 -48 -42 -12 0 54c0,99 0,198 0,297 -14,-4 -27,-7 -41,-11 0,-97 0,-195 0,-292l0 -59 -19 -6 -11 0 0 388 790 247 0 -419zm1010 17l-116 -2 0 -125 153 0 -71 -530c-23,-27 -51,-46 -83,-56l-8 -20 -80 -249 0 0c-135,291 -430,493 -772,493 -342,0 -636,-202 -771,-493l0 0 -85 263 0 3 -1 3c-33,10 -61,29 -83,56l-71 530 153 0 0 125 -117 2c-31,199 151,219 151,223l826 259 0 0 0 0 0 0 0 0 826 -259c1,-2 176,-40 149,-223z"/>
   <path class="fil2" d="M7085 15488l338 0 -168 -478 -170 478zm7176 -231c-21,28 -46,48 -75,62 -28,14 -61,21 -98,21 -70,0 -126,-25 -169,-74 -43,-50 -65,-115 -65,-196 0,-84 22,-151 67,-199 45,-48 105,-73 182,-73 59,0 106,15 143,45 37,29 60,71 67,124l-68 0c-6,-35 -22,-62 -46,-80 -25,-19 -57,-29 -96,-29 -56,0 -100,18 -130,55 -31,36 -47,88 -47,154 0,66 16,117 46,154 31,37 73,55 126,55 49,0 87,-14 116,-44 29,-29 43,-69 43,-119l0 -7 -161 0 0 -58 226 0 0 278 -46 0 -15 -69zm-123 687l-283 0 0 -55c30,-26 64,-56 101,-90 38,-35 65,-65 83,-91 19,-26 28,-52 28,-78 0,-23 -8,-41 -23,-54 -16,-13 -36,-19 -62,-19 -39,0 -77,12 -114,36l-2 0 0 -54c37,-18 76,-27 117,-27 43,0 76,10 101,31 24,20 37,49 37,84 0,19 -4,38 -10,55 -6,18 -16,35 -29,51 -14,16 -29,34 -48,53 -18,18 -61,56 -128,112l232 0 0 46zm3562 -317c43,0 78,35 78,78 0,43 -35,78 -78,78 -43,0 -78,-35 -78,-78 0,-43 35,-78 78,-78zm-2763 325c-50,0 -87,-17 -110,-53 -23,-36 -35,-91 -35,-167 0,-75 12,-131 35,-166 24,-36 60,-54 110,-54 49,0 85,18 109,54 24,36 35,91 35,166 0,75 -11,131 -35,167 -23,36 -60,53 -109,53zm0 -397c-32,0 -55,13 -70,38 -14,25 -22,72 -22,139 0,67 8,114 22,139 15,26 38,38 70,38 32,0 55,-12 69,-38 15,-25 22,-72 22,-139 0,-66 -7,-112 -22,-138 -14,-26 -37,-39 -69,-39zm1065 389l-226 0 0 -39 88 0 0 -291 -88 0 0 -34c35,-1 59,-5 74,-15 15,-10 23,-25 25,-46l40 0 0 386 87 0 0 39zm969 -365l-190 365 -57 0 202 -378 -242 0 0 -46 287 0 0 59zm1724 365l-283 0 0 -55c30,-26 64,-56 101,-90 37,-35 65,-65 83,-91 18,-26 28,-52 28,-78 0,-23 -8,-41 -23,-54 -16,-13 -36,-19 -63,-19 -38,0 -76,12 -113,36l-3 0 0 -54c38,-18 77,-27 118,-27 43,0 76,10 101,31 24,20 36,49 36,84 0,19 -3,38 -9,55 -6,18 -16,35 -29,51 -14,16 -30,34 -48,53 -19,18 -61,56 -128,112l232 0 0 46zm799 8c-50,0 -87,-17 -110,-53 -23,-36 -35,-91 -35,-167 0,-75 12,-131 35,-166 23,-36 60,-54 110,-54 49,0 85,18 109,54 24,36 35,91 35,166 0,75 -11,131 -35,167 -23,36 -60,53 -109,53zm0 -397c-32,0 -56,13 -70,38 -14,25 -22,72 -22,139 0,67 8,114 22,139 14,26 38,38 70,38 32,0 55,-12 69,-38 15,-25 22,-72 22,-139 0,-66 -7,-112 -22,-138 -14,-26 -37,-39 -69,-39zm1089 389l-283 0 0 -55c29,-26 63,-56 100,-90 38,-35 66,-65 84,-91 18,-26 27,-52 27,-78 0,-23 -8,-41 -23,-54 -15,-13 -36,-19 -62,-19 -38,0 -76,12 -113,36l-3 0 0 -54c38,-18 77,-27 117,-27 43,0 77,10 101,31 25,20 37,49 37,84 0,19 -3,38 -9,55 -7,18 -16,35 -30,51 -13,16 -29,34 -48,53 -18,18 -61,56 -127,112l232 0 0 46zm919 0l-225 0 0 -39 88 0 0 -291 -88 0 0 -34c34,-1 59,-5 74,-15 15,-10 23,-25 25,-46l40 0 0 386 86 0 0 39zm-7029 -875c0,66 15,118 45,155 31,37 73,55 126,55 54,0 96,-18 126,-55 30,-37 45,-89 45,-155 0,-66 -15,-118 -45,-155 -30,-37 -72,-55 -126,-55 -53,0 -95,18 -126,55 -30,37 -45,89 -45,155zm-73 0c0,-85 22,-151 65,-199 43,-48 103,-72 179,-72 76,0 136,24 179,72 43,47 64,114 64,199 0,85 -21,151 -64,199 -43,48 -103,72 -179,72 -76,0 -136,-24 -179,-72 -43,-48 -65,-114 -65,-199zm575 257l0 -514 208 0c53,0 93,10 120,31 26,21 40,52 40,94 0,27 -7,49 -19,68 -12,19 -31,33 -55,43 31,6 55,20 72,42 17,21 26,49 26,82 0,47 -16,85 -47,112 -31,28 -73,42 -127,42l-218 0zm70 -298l123 0c36,0 62,-7 79,-20 17,-13 26,-33 26,-61 0,-26 -9,-45 -25,-58 -16,-12 -41,-19 -75,-19l-128 0 0 158zm0 236l142 0c35,0 62,-8 81,-24 18,-16 27,-39 27,-69 0,-29 -9,-51 -28,-65 -18,-14 -48,-21 -88,-21l-134 0 0 179zm405 62l0 -514 70 0 0 514 -70 0zm182 0l0 -514 367 0 0 63 -298 0 0 154 275 0 0 60 -275 0 0 172 304 0 0 65 -373 0zm526 -454l0 174 119 0c43,0 73,-7 91,-21 18,-14 27,-37 27,-70 0,-30 -8,-52 -25,-64 -17,-13 -48,-19 -93,-19l-119 0zm-69 -60l200 0c32,0 56,1 71,4 15,3 29,7 41,14 22,12 38,28 49,49 12,22 17,47 17,75 0,28 -6,51 -17,71 -12,20 -30,35 -54,46 21,6 35,15 43,29 9,13 14,35 16,67l6 85c1,18 4,31 7,40 4,9 9,16 16,19l0 15 -80 0c-7,-11 -11,-34 -14,-69l0 -2 -4 -67c-2,-35 -10,-57 -22,-67 -13,-10 -43,-15 -93,-15l-113 0 0 220 -69 0 0 -514zm474 514l0 -514 77 0 240 373c5,8 10,16 14,23 4,7 7,14 9,20l0 -416 67 0 0 514 -76 0 -245 -379c-4,-6 -7,-12 -11,-18 -3,-6 -6,-13 -8,-20l0 417 -67 0zm566 -257c0,66 16,118 46,155 30,37 72,55 126,55 54,0 96,-18 126,-55 30,-37 45,-89 45,-155 0,-66 -15,-118 -45,-155 -30,-37 -72,-55 -126,-55 -54,0 -96,18 -126,55 -30,37 -46,89 -46,155zm-72 0c0,-85 22,-151 65,-199 43,-48 103,-72 179,-72 76,0 136,24 179,72 43,47 64,114 64,199 0,85 -21,151 -64,199 -43,48 -103,72 -179,72 -76,0 -136,-24 -179,-72 -43,-48 -65,-114 -65,-199zm835 -181l0 438 -64 0 0 -514 100 0 127 393c4,11 7,20 8,26 2,6 3,12 4,16 2,-8 4,-16 6,-23 2,-7 4,-13 6,-19l132 -393 100 0 0 514 -68 0 0 -438c-2,7 -3,15 -5,22 -2,8 -5,15 -7,23l-132 393 -66 0 -129 -393c-3,-7 -5,-14 -7,-21 -2,-8 -3,-15 -5,-24zm526 243l0 -319 70 0 0 319c0,49 11,84 32,107 22,23 55,35 99,35 44,0 77,-12 99,-35 22,-24 33,-59 33,-107l0 -319 70 0 0 319c0,69 -18,121 -53,156 -36,35 -88,53 -157,53 -64,0 -112,-17 -145,-52 -32,-35 -48,-87 -48,-157zm509 195l0 -514 77 0 240 373c6,8 10,16 14,23 4,7 7,14 10,20l0 -416 66 0 0 514 -76 0 -245 -379c-4,-6 -7,-12 -10,-18 -3,-6 -6,-13 -9,-20l0 417 -67 0zm518 0l0 -514 70 0 0 514 -70 0zm542 -191l68 0c-3,62 -25,112 -64,149 -40,37 -91,56 -154,56 -73,0 -129,-25 -170,-74 -41,-49 -62,-118 -62,-205 0,-80 22,-144 65,-192 43,-47 101,-71 174,-71 58,0 106,15 143,45 37,30 58,71 64,123l-68 0c-7,-34 -23,-60 -47,-78 -24,-18 -56,-28 -95,-28 -52,0 -93,19 -121,55 -29,37 -43,88 -43,155 0,63 14,113 44,151 30,38 70,57 119,57 42,0 77,-13 104,-39 27,-27 41,-61 43,-104zm151 191l0 -514 70 0 0 514 -70 0zm252 -279l118 0c40,0 69,-7 85,-20 16,-13 24,-35 24,-67 0,-30 -8,-52 -24,-65 -16,-14 -43,-20 -80,-20l-123 0 0 172zm-70 279l0 -514 190 0c30,0 54,1 70,4 16,3 30,8 43,15 21,12 37,29 48,51 11,22 17,48 17,78 0,29 -6,54 -17,76 -11,22 -27,40 -49,53 -12,7 -27,12 -43,15 -17,4 -44,5 -82,5l-107 0 0 217 -70 0zm494 -214l160 0 -80 -227 -80 227zm-149 214l191 -514 77 0 192 514 -76 0 -55 -154 -202 0 -55 154 -72 0zm513 0l0 -514 70 0 0 449 256 0 0 65 -326 0zm-14407 613l403 -1085 163 0 404 1085 -160 0 -115 -324 -427 0 -116 324 -152 0zm1230 -588l247 0c86,0 146,-14 180,-42 34,-27 51,-74 51,-141 0,-65 -17,-111 -51,-139 -33,-28 -90,-42 -169,-42l-258 0 0 364zm-148 588l0 -1085 400 0c64,0 114,3 148,10 34,6 64,17 90,31 45,25 78,60 102,107 24,47 36,103 36,166 0,60 -12,114 -36,160 -24,46 -58,83 -103,110 -26,16 -57,27 -92,34 -35,7 -93,10 -173,10l-224 0 0 457 -148 0zm923 0l0 -1085 148 0 0 1085 -148 0zm311 0l0 -122 664 -835 -620 0 0 -128 790 0 0 136 -650 816 650 0 0 133 -834 0zm1260 -451l338 0 -168 -478 -170 478zm-314 451l403 -1085 163 0 405 1085 -160 0 -115 -324 -427 0 -116 324 -153 0zm1751 -403l143 0c-6,132 -51,237 -135,316 -84,78 -192,117 -324,117 -153,0 -273,-52 -360,-156 -87,-104 -130,-248 -130,-432 0,-171 46,-306 136,-406 91,-99 214,-150 368,-150 123,0 223,32 302,96 78,63 123,149 136,259l-145 0c-14,-72 -47,-127 -98,-165 -51,-39 -119,-58 -201,-58 -110,0 -195,38 -256,115 -61,78 -91,186 -91,327 0,132 31,239 95,319 63,80 147,120 251,120 88,0 161,-28 218,-83 57,-55 87,-128 91,-219zm422 -139c0,139 32,248 96,327 64,78 153,117 267,117 113,0 201,-39 265,-117 63,-79 95,-188 95,-327 0,-139 -32,-248 -95,-326 -64,-78 -152,-117 -265,-117 -114,0 -203,39 -267,117 -64,78 -96,187 -96,326zm-152 0c0,-179 45,-319 136,-420 92,-101 218,-152 379,-152 160,0 286,51 377,152 90,100 135,241 135,420 0,180 -45,320 -135,421 -91,101 -217,151 -377,151 -161,0 -287,-50 -379,-151 -91,-101 -136,-241 -136,-421z"/>
   <path class="fil4" d="M10003 6935c54,-122 19,-175 42,-221 19,-38 46,-96 48,-171 52,36 80,105 120,157 36,-60 53,-124 53,-192l77 154c20,-95 68,-173 13,-280 207,194 83,390 231,536 -165,34 -215,-70 -242,-216 -9,112 73,177 24,280 -54,-29 -151,-14 -180,-224 -8,118 -31,226 -93,305 -39,-15 -84,-35 -93,-128z"/>
   <path class="fil4" d="M9970 5666c-293,-18 -419,79 -520,193 67,-8 111,-7 167,3 87,-190 316,-62 437,-85 63,0 108,-8 146,-38l3 -13c-37,7 -75,11 -114,14 46,-12 89,-28 128,-46 27,-27 25,-48 -2,-63 -78,-22 -159,-8 -245,35zm111 26c8,0 15,4 15,10 0,5 -7,10 -15,10 -9,0 -16,-5 -16,-10l1 -1c1,1 3,1 5,1 3,0 6,-1 6,-4 0,-2 -2,-4 -6,-4 3,-1 6,-2 10,-2z"/>
   <path class="fil4" d="M9560 6315c-3,140 134,224 -8,421l110 -76c-74,128 -123,258 -233,424 110,-103 163,-89 258,-235 -86,163 -223,262 -260,516 226,-275 751,-549 133,-1050z"/>
   <path class="fil4" d="M10094 7101c12,-27 100,-159 102,-205 15,46 47,82 93,109l13 -16c46,17 80,39 90,80 20,-59 37,-94 13,-174 207,120 84,242 231,332 -164,21 -215,-43 -242,-133 -9,69 65,143 17,206 -54,-18 -144,-41 -172,-172 -20,74 54,161 -19,227 -106,-24 -153,-191 -126,-254z"/>
   <path class="fil4" d="M9987 6993c-52,92 -120,172 -198,243 7,84 40,134 96,156 28,-67 73,-82 65,-167 20,122 65,100 80,149 44,-29 65,-70 72,-118 -28,-53 -36,-115 -24,-151 -38,-26 -81,-76 -91,-112z"/>
   <path class="fil4" d="M10456 7218c36,25 75,32 113,40 89,170 -11,275 9,410 -98,-15 -85,-140 -128,-211 0,87 -25,161 -71,226 -59,-29 -98,-95 -122,-187 1,87 -14,158 -52,206 -50,-29 -82,-94 -100,-187 6,65 -13,127 -53,185 -40,-25 -66,-78 -81,-153 -9,69 -39,114 -84,144 -48,-19 -75,-74 -95,-151 -10,68 -84,168 -176,216 -59,-21 -89,-62 -92,-134 49,-144 162,-268 247,-347 17,89 50,140 113,159l72 -115c13,43 53,55 69,95 47,-30 73,-74 90,-124 20,45 48,82 92,101 67,-29 73,-84 67,-145 41,56 100,62 150,93 45,-40 21,-81 32,-121z"/>
   <path class="fil4" d="M10605 7597c25,-115 30,-231 -13,-347 125,96 38,291 229,392 -76,48 -149,47 -216,-45z"/>
   <path class="fil4" d="M9480 7695c55,-361 348,-446 464,-721 142,-227 -8,-406 -154,-576 -65,-75 -138,-193 -208,-252 -41,-34 -103,-62 -148,-11 21,69 83,87 127,132 197,197 411,412 280,680 -66,201 -374,315 -465,617 36,50 63,92 104,131z"/>
   <path class="fil4" d="M9659 5896c-268,-52 -380,29 -281,291 60,-191 204,-100 329,63 135,176 296,290 331,424 31,-45 48,-106 26,-209 49,84 117,112 141,196 42,-57 42,-121 20,-236 51,48 95,98 110,200 32,-95 37,-190 -26,-285 68,38 124,103 203,115 -57,-85 -85,-192 -170,-255l203 16c-213,-78 -242,-320 -530,-294 -110,-89 -228,-103 -356,-26zm282 140l20 6c-13,59 29,109 74,149 -65,-48 -101,-96 -94,-155zm-230 -51c-14,-8 -27,4 -20,27 6,21 23,31 34,46 -31,-49 4,-59 -14,-73zm277 67c16,-1 30,0 43,1 -12,9 -20,23 -20,39 0,25 20,46 44,46 25,0 45,-21 45,-46 0,-7 -2,-13 -4,-19 39,23 57,61 73,102 -62,-28 -177,9 -181,-123zm40 46c24,-1 30,11 35,24 -12,-5 -34,2 -35,-24z"/>
   <path class="fil4" d="M8008 11074l0 -2615c254,97 522,151 791,155 24,78 101,136 191,136 93,0 171,-61 193,-142 36,36 88,59 145,59 94,0 173,-61 194,-144 31,43 86,72 149,72 95,0 172,-66 172,-148 0,-25 -7,-48 -19,-69 68,-35 135,-73 200,-116 78,41 156,78 232,111 -15,22 -23,47 -23,74 0,82 77,148 173,148 63,0 118,-29 148,-72 22,83 100,144 194,144 57,0 109,-23 146,-59 21,81 99,142 192,142 96,0 175,-64 195,-149 261,-1 521,-49 788,-142l0 2595c-68,991 -1860,530 -2046,872 -140,-332 -1928,187 -2015,-852zm3816 -2383c-587,187 -1151,114 -1696,-175l19 1570 1677 0 0 -1395zm-2 1553l-1673 0 0 1420c487,-196 1404,22 1629,-536 80,-310 29,-574 44,-884zm-3579 -1553c587,187 1151,114 1696,-175l-19 1570 -1677 0 0 -1395zm13 1553l1674 0 0 1420c-488,-196 -1405,22 -1630,-536 -83,-310 -39,-659 -44,-884z"/>
   <path class="fil4" d="M9031 8779c23,39 60,26 63,0 -9,-107 24,-222 -28,-308 -57,-64 -160,-27 -161,48 3,103 84,174 126,260z"/>
   <path class="fil4" d="M9369 8697c23,40 60,26 64,0 -10,-108 23,-223 -28,-309 -58,-64 -161,-27 -162,48 3,103 84,174 126,261z"/>
   <path class="fil4" d="M9706 8606c20,31 52,20 55,0 -8,-84 20,-174 -24,-242 -50,-50 -139,-21 -140,38 2,81 73,136 109,204z"/>
   <path class="fil4" d="M9121 8349c-42,-35 -74,-51 -128,-41 76,-72 188,-107 436,-106 134,1 318,50 512,35 -40,39 -85,57 -104,71 -100,-88 -247,-101 -331,3 -73,-128 -323,-116 -385,38z"/>
   <path class="fil4" d="M10953 8349c43,-35 74,-51 129,-41 -77,-72 -189,-107 -437,-106 -133,1 -317,50 -511,35 39,39 84,57 104,71 99,-88 246,-101 331,3 73,-128 323,-116 384,38z"/>
   <path class="fil4" d="M11056 8779c-23,39 -59,26 -63,0 9,-107 -23,-222 28,-308 57,-64 160,-27 161,48 -3,103 -84,174 -126,260z"/>
   <path class="fil4" d="M10718 8697c-23,40 -60,26 -63,0 9,-108 -24,-223 27,-309 58,-64 161,-27 162,48 -2,103 -84,174 -126,261z"/>
   <path class="fil4" d="M10381 8606c-20,31 -52,20 -55,0 8,-84 -20,-174 24,-242 50,-50 139,-21 140,38 -2,81 -73,136 -109,204z"/>
   <path class="fil4" d="M9881 9979c-71,-5 -210,11 -291,-7 -85,-19 -134,-29 -164,-11 -87,34 -126,-17 -209,-26 -150,42 -98,-36 -164,-32 -153,36 -116,-35 -207,-44 -124,63 -135,-44 -191,-31 -268,143 -266,-34 -369,-22l0 238 1595 0 0 -65z"/>
   <path class="fil4" d="M8459 9711c-58,-18 -44,-78 -173,-55l0 -139c203,-16 383,-337 517,-477 56,-33 81,131 169,200 47,29 84,74 140,89 -39,-58 -114,-93 -142,-154l89 -65 111 -104c46,-56 218,237 327,312 73,53 204,64 307,96 -77,21 -262,-43 -288,-12 -16,9 -16,22 18,37 84,39 166,-15 155,25 -16,55 -174,17 -131,69 147,99 154,91 323,119l0 96c-53,6 -105,-11 -158,-58 -61,-77 -209,-37 -253,-73 -76,-52 -178,-26 -219,-27 -13,-5 -2,-28 -20,-38 -24,-9 -45,2 -72,-6 -42,-20 11,-62 -12,-67 -37,1 -35,44 -28,80 19,35 49,0 84,26 9,15 -16,32 10,42 70,4 135,-17 195,26 88,51 -15,61 1,101 106,79 236,35 333,83 -29,4 -52,23 -88,11 -53,-17 -81,7 -118,-8 -49,-20 -77,0 -114,-16 -46,-25 -88,8 -126,-11 -24,-11 -37,-39 -72,-33 -58,3 -72,-28 -114,-28 -39,0 -45,-34 -86,-19 -59,17 -95,-30 -146,-16 -96,14 -130,-57 -184,-39 -74,47 -157,22 -235,33z"/>
   <path class="fil4" d="M9083 9063c-41,33 -76,70 -130,97 -18,-18 -31,-40 -45,-59l64 -86c14,-16 30,-19 52,-1l59 49z"/>
   <path class="fil2" d="M9219 12229c-8,-6 -10,-21 -7,-32l19 -88c8,5 16,2 25,-7 -9,-9 -13,-23 -14,-41l4 -18 53 12c11,3 26,8 39,16 -18,-19 -28,-42 -24,-65l-187 -42c-7,22 -26,39 -48,50 13,-3 30,-1 42,1l53 12 -4 18c-9,15 -19,26 -30,31 4,11 10,18 19,17l-19 88c-3,11 -11,23 -21,25l100 23zm135 -215c8,7 11,21 9,31l-7 39c-6,16 -17,27 -28,33 4,11 11,17 20,16l-16 88c-2,12 -10,24 -19,27l175 31c5,-22 23,-39 47,-51 -16,3 -32,2 -43,0l-84 -15 12 -67c8,3 16,0 25,-8 -9,-10 -14,-24 -16,-41l7 -39c2,-13 9,-23 19,-26l-101 -18zm286 285c-10,-7 -22,-14 -17,-31 0,0 2,-4 5,-12l6 -14 73 8c2,10 3,18 5,27 2,19 -12,22 -22,27l113 12c-10,-13 -12,-16 -16,-31l-24 -89c6,-2 10,-7 14,-16 -9,-4 -17,-11 -23,-21l-16 -59c-3,-13 0,-22 6,-29l-108 -12c5,9 5,18 0,30l-27 54c-9,10 -18,15 -27,17 1,9 5,15 10,18l-41 82c-8,14 -12,17 -23,27l112 12zm15 -107c9,-21 19,-44 28,-65 5,22 9,47 14,69l-42 -4zm288 -109c7,5 13,19 14,28l-22 33 -21 -33c0,-10 5,-23 14,-28l-120 -2c10,4 18,11 25,18l51 82c-3,3 -7,6 -14,8 4,13 12,19 23,19l-63 96c-6,6 -14,11 -24,15l120 1c-9,-4 -14,-17 -14,-29l22 -33 22 33c0,12 -6,26 -15,30l121 1c-11,-4 -19,-10 -25,-16l-61 -97c12,0 19,-6 23,-19 -7,-4 -12,-6 -14,-8l53 -81c7,-7 15,-13 26,-17l-121 -1zm208 91c4,-27 19,-41 43,-42 17,-1 29,5 38,18 -3,12 -7,20 -14,24l100 -5c-8,-3 -14,-11 -17,-24 -21,-52 -57,-70 -111,-67 -57,3 -100,31 -110,87 -5,16 -11,26 -20,34 5,8 10,11 18,12 2,27 9,49 21,65 28,40 60,46 107,43 54,-2 91,-26 101,-83 4,-11 8,-17 14,-22l-47 3c-19,1 -31,12 -37,24 -8,16 -20,25 -38,26 -38,2 -46,-27 -49,-59 8,-1 14,-6 19,-15 -7,-3 -13,-10 -18,-19zm292 124c-11,-5 -24,-8 -23,-27 0,0 0,-4 1,-12l3 -15 74 -9c3,9 6,17 11,25 5,18 -8,24 -16,32l113 -15c-13,-10 -16,-12 -23,-26l-43 -81c5,-3 8,-9 9,-19 -9,-2 -19,-7 -27,-16l-28 -54c-6,-11 -5,-21 -1,-29l-108 13c7,8 9,17 7,29l-14 59c-7,12 -15,19 -23,22 4,10 8,15 14,16l-22 89c-4,16 -7,19 -16,32l112 -14zm-9 -108c3,-22 8,-47 12,-70 9,21 19,44 29,65l-41 5zm140 -150c9,4 17,17 19,27l7 39c-1,17 -7,31 -15,40 7,10 16,13 24,9l16 88c2,12 -1,26 -9,31l176 -31c-4,-23 8,-45 26,-65 -14,9 -30,14 -40,15l-84 16 -13 -67c9,0 16,-6 21,-17 -12,-6 -22,-17 -29,-32l-8 -39c-2,-14 1,-25 9,-32l-100 18zm367 170c-11,-4 -25,-6 -26,-24 0,0 0,-4 1,-13l1 -15 72 -16c4,9 8,16 13,23 8,18 -4,25 -12,34l111 -26c-14,-9 -17,-11 -26,-24l-51 -76c5,-4 7,-10 8,-20 -10,-1 -20,-5 -29,-13l-34 -51c-7,-10 -7,-20 -4,-29l-106 25c8,6 10,15 10,28l-8 60c-5,12 -12,20 -20,24 4,9 9,14 15,15l-12 90c-3,16 -5,20 -13,33l110 -25zm-21 -106c2,-23 4,-48 6,-71 11,20 23,41 35,61l-41 10z"/>
   <path class="fil4" d="M10055 13900c-102,-163 -176,-344 -216,-538 -37,151 -97,292 -178,420 -123,-197 -200,-425 -214,-671 -35,169 -100,328 -189,469 -125,-199 -203,-433 -215,-683 -36,152 -97,295 -178,424 -109,-174 -182,-373 -207,-586 -30,97 -69,190 -116,276 -94,-174 -156,-374 -178,-588 -32,125 -78,242 -136,349 -98,-181 -161,-390 -180,-614 137,105 286,192 438,254 47,9 143,-16 103,-87 -35,-55 -274,39 -294,-88l0 -478 -9 -7 8 5 1 0 0 0 52 32 0 -32 1 0 -1 1 0 440c105,-108 310,59 464,88l5 1c4,187 18,370 41,550 19,-174 31,-349 36,-524 54,16 112,31 173,44 7,46 12,92 14,140 11,-44 23,-87 37,-129 32,6 65,12 98,18 -1,237 14,469 42,694 25,-225 38,-452 39,-682 39,6 78,11 118,16 32,105 52,215 59,329 22,-109 57,-214 103,-313l52 4c-12,312 1,613 37,905 33,-297 46,-597 36,-900l51 3c36,80 65,164 87,251 17,-84 41,-166 71,-245 38,0 77,1 115,1 -25,370 -14,725 29,1068 39,-352 50,-708 27,-1068 40,0 80,-1 119,-2 29,75 52,154 69,234 21,-83 50,-164 85,-241l52 -3c-12,311 1,611 38,902 33,-299 46,-601 35,-907l49 -4c46,99 81,205 104,315 7,-115 27,-226 60,-332 36,-5 71,-10 106,-15 0,234 14,462 42,684 25,-230 39,-463 39,-697 36,-7 72,-13 107,-21 15,44 28,89 39,135 2,-50 7,-99 14,-146 62,-15 119,-30 173,-47 5,181 18,358 40,533 20,-185 33,-370 38,-557 151,-40 340,-184 440,-82l0 -440 -1 -1 1 0 0 31 62 -37 -10 8 0 478c-20,127 -260,33 -294,88 -41,71 55,96 103,87 163,-67 322,-162 468,-277 -16,233 -81,449 -182,637 -59,-107 -105,-224 -136,-349 -22,214 -84,414 -178,588 -47,-86 -86,-179 -116,-276 -25,213 -98,412 -207,586 -81,-129 -142,-272 -178,-424 -13,250 -90,484 -216,683 -89,-141 -153,-300 -188,-469 -14,246 -91,474 -214,671 -79,-124 -138,-261 -175,-407 -40,189 -114,366 -214,525zm-877 -1681c13,-28 28,-56 43,-84l-1 24 -8 38c-3,11 -1,24 6,30l0 1 -40 -9zm156 -10c8,15 15,31 22,46l-43 -7c9,-3 17,-15 19,-27l2 -12zm630 112c12,-25 24,-49 37,-72l36 56 -2 16 -71 0zm96 -122l0 0c5,-4 9,-9 12,-15 25,41 49,84 70,128 -16,-6 -30,-18 -43,-36 -12,-16 -19,-38 -21,-65 -8,-1 -13,-4 -18,-12zm692 51c8,-19 17,-38 26,-57 7,-1 15,-3 24,-7l0 14c-8,13 -12,28 -10,43l-40 7zm125 -25c-1,-36 -2,-72 -4,-108 18,31 35,64 51,97l-47 11zm200 -47l6 -19c4,5 9,8 18,14l-24 5z"/>
   <path class="fil4" d="M10170 9446l0 -90c54,4 77,-24 116,-36 42,-27 114,-35 149,-29 96,40 164,47 264,70 56,11 175,64 277,83 96,20 193,19 289,29 -112,12 -275,20 -379,-12 -57,-16 -104,-49 -170,-46 -219,-91 -94,25 -187,19 -15,-2 -28,-22 -44,-7 -12,14 -12,32 -36,41 -39,2 -70,-21 -117,5 -42,27 -118,68 -163,104l0 -97c103,-2 136,-65 202,-82 -41,1 -55,-18 -82,-27 -45,-10 -63,62 -119,75z"/>
   <path class="fil4" d="M10840 9719c314,-61 501,-206 940,-184l0 501 -1058 0c-64,-13 70,-65 -194,-39 34,-71 158,-58 236,-87 130,-35 149,-103 223,-154 -49,-13 -260,22 -147,-37z"/>
   <path class="fil4" d="M10488 9661c-113,29 -115,-71 -288,-19 103,-86 198,-69 284,-153 129,-124 305,31 500,42 -312,7 -311,123 -496,130z"/>
   <path class="fil4" d="M10814 9169l-127 37c42,-24 81,-76 126,-71l61 12 116 -66c44,-16 61,-4 92,-5 19,2 29,-33 44,-49 14,-14 36,-8 55,-12l37 -32c14,-14 34,9 58,-4 11,-17 6,-42 33,-52l57 3 50 -28c21,-10 39,-9 56,2l33 46 12 29c26,36 72,48 108,72l93 82 63 23 0 44 -156 2 -85 -23 -57 -34c-29,-17 -50,20 -75,30l-69 -17 -52 -31c-19,-11 -37,37 -51,25l-54 -42c-28,-14 -50,43 -75,64l-83 30 -65 -17c4,-15 43,-47 12,-46l-80 34 -77 -6z"/>
   <path class="fil4" d="M10906 9376c114,-57 131,-114 197,-170 25,-18 44,-16 60,0 -64,50 -81,172 -257,170z"/>
   <path class="fil4" d="M11176 9318c-41,11 -80,59 -122,33 59,-36 66,-91 110,-132 30,-23 54,54 96,71 117,46 157,85 288,120 -137,0 -161,-52 -279,-75 -37,0 -63,29 -95,44 -31,14 -39,-8 -58,-12 29,-13 40,-32 60,-49z"/>
   <path class="fil4" d="M9159 8847c251,-50 492,-126 738,-263l-4 363c-65,30 -59,101 -115,32 56,-23 69,-106 -21,-111 31,-74 -148,-112 -151,16 -51,18 -73,95 -140,52 -47,-64 -131,-37 -153,12 -10,24 -34,28 -44,18 35,-59 28,-111 -110,-119z"/>
   <path class="fil4" d="M11164 8858c-331,-34 -690,-117 -992,-285l5 537c80,37 72,31 141,-53 -69,-29 -84,-131 26,-136 -39,-91 181,-194 185,-38 62,22 89,117 170,64 59,-78 162,-46 188,14 13,30 62,22 74,10 83,-65 160,-47 203,-113z"/>
   <path class="fil4" d="M10926 11510c114,-8 226,-28 307,-41 -52,-64 -297,-199 -354,-307 -44,-84 -18,-68 -166,-124 -64,-24 -91,-4 -76,31 14,31 42,14 93,45 51,32 40,92 48,152 21,146 -8,84 148,244z"/>
   <path class="fil4" d="M10541 11183c0,1 -2,1 -2,3 0,2 -17,15 -11,40 6,23 16,22 30,31 -21,37 -13,49 20,71 -33,113 125,28 143,1 7,-19 -14,-38 -24,-49l-7 -8c21,-9 39,-17 30,-46 -10,-30 -26,-26 -45,-35 5,-21 -9,-46 -26,-55 -14,-8 -13,-2 -23,-19 -11,-17 -5,-13 -20,-27 -39,3 -131,50 -65,93z"/>
   <path class="fil4" d="M10722 11281c25,39 28,59 -20,84 -44,23 -41,10 -45,32 27,5 86,-10 116,-18 -3,-59 -13,-133 -20,-193 -9,-68 -57,-69 -116,-88 15,32 25,7 50,59 10,21 3,12 18,25 60,47 25,81 17,99z"/>
   <path class="fil4" d="M10636 10210l23 260 75 -250 -30 260 124 -228 -82 247 167 -196 -130 224 203 -156 -172 191 230 -109 -207 151 247 -58 -233 103 254 -4 -249 51 249 51 -254 -4 233 103 -247 -58 207 151 -230 -110 172 192 -198 -152c7,-9 11,-20 10,-31l0 0c-2,-22 -22,-38 -44,-36l-10 1c1,-6 5,-7 1,-14 -4,-5 -11,-3 -16,0 -1,9 -2,9 5,15 0,0 -1,0 -1,0l-22 3c0,-1 0,0 1,-2 4,-9 1,-16 -7,-16 -6,0 -11,6 -9,13 3,6 3,0 4,6l-22 3c2,-5 6,-9 1,-15 -8,-9 -24,5 -10,16 -1,0 -1,0 -1,0l-22 3c0,-1 0,-1 0,-1 0,2 8,-17 -6,-17 -4,0 -7,2 -8,4 -2,3 -2,5 -1,8 2,7 3,1 4,7l-22 2 -1 0 2 -3c6,-12 -4,-18 -15,-11 -3,13 2,12 3,15l0 1 -22 2c0,-2 5,-8 2,-14 -3,-3 -10,-7 -15,0 -6,7 1,11 2,15l-22 3 0 0c1,-2 6,-9 1,-15 -5,-6 -12,-2 -15,2 -3,9 0,9 4,14l0 0 -8 1c-22,3 -39,23 -37,45l0 0c1,15 10,26 22,32l-156 184 130 -224 -203 156 172 -192 -230 110 207 -151 -247 58 233 -103 -254 4 249 -51 -249 -51 254 4 -233 -103 247 58 -207 -151 230 109 -172 -191 203 156 -130 -224 167 196 -82 -247 124 228 -30 -260 73 242c-6,-3 -14,-5 -23,-4 9,6 27,7 30,40 1,14 -2,30 -5,44 -2,5 -3,9 -5,13 -11,-7 -9,-20 -8,-34 -7,5 -34,41 -39,49 -30,49 -63,94 -71,152 -4,29 6,76 26,80 -8,-20 -11,-44 1,-59 6,9 6,21 26,31 -12,-38 -11,-63 5,-102 2,-7 11,-24 12,-28l10 -15c1,7 0,13 3,18 -3,22 22,56 32,70 20,26 28,32 22,72l110 -13c10,-1 11,-3 14,-10 28,-49 10,-90 -29,-122 -6,-4 -20,-18 -25,-19 -10,-15 -10,-9 -21,-25 0,0 0,-1 0,-1 -6,-6 -13,-22 -12,-37 2,-15 9,-23 15,-31 -30,16 -33,47 -28,77 1,5 3,8 4,13 11,21 45,93 3,93 -33,0 -42,-49 -41,-77l0 -8 2 -11 1 -10c7,-33 30,-101 6,-134 -3,-4 -7,-8 -12,-11l23 -253zm-52 803l78 -9 6 58 85 -9 5 -59c13,-5 25,-12 21,-30 -5,-16 -19,-18 -36,-15 3,-7 5,-6 8,-11 9,-14 1,-9 9,-14 3,-1 6,-2 8,-5l145 170 -126 -218c-7,6 -16,11 -26,12l-225 26c-5,1 -11,0 -16,-1l-77 232 105 -192c1,0 2,0 3,0 2,1 3,2 5,4 4,5 2,4 7,9 4,3 6,4 8,7 -18,3 -31,6 -32,24 -1,24 25,23 27,26l15 54 19 -2 -16 -57zm-13 -100l-4 0 0 -1 4 1z"/>
   <path class="fil4" d="M10922 11109c37,109 238,231 405,327 71,-12 156,-47 223,-84l-628 -243z"/>
   <path class="fil4" d="M10574 11529l-31 -181c-19,-16 -29,-37 -26,-66 -21,-19 -20,-51 -9,-89 -13,-18 -20,-29 -6,-65 -40,32 -74,76 -104,125l-219 368c92,-56 284,-76 395,-92z"/>
   <path class="fil4" d="M7097 10994c6,-28 -14,-79 0,-77 61,66 133,123 204,169 39,44 88,217 204,305 43,10 130,24 176,80 28,55 74,103 98,140 -135,-39 -232,-85 -339,-198 -23,-18 -4,51 26,120 -54,-126 -221,-119 -240,-278 0,-26 86,5 63,-11 -71,-21 -78,-87 -117,-130 -16,-45 -50,-82 -75,-120z"/>
   <path class="fil4" d="M6988 10183c-13,-95 -80,-204 -142,-286 -2,-66 13,-138 50,-181 5,63 59,83 66,161 -10,43 130,137 122,255 -26,-29 -48,-73 -85,-86 13,56 -9,87 -11,137z"/>
   <path class="fil4" d="M6768 10106c-44,-45 -68,-91 -132,-127 0,-32 -19,-64 0,-97 -38,-30 -68,-129 -11,-276 39,30 70,94 75,132 38,22 70,47 86,80 23,37 42,73 49,111 66,72 112,165 141,276 10,44 13,89 -3,133 -15,45 0,71 0,107 -37,-41 -77,-62 -110,-122 -6,-26 3,-52 -19,-77 -42,-36 -51,-93 -76,-140z"/>
   <path class="fil4" d="M6473 10132c-13,-123 -47,-159 -34,-246 54,38 120,58 163,113 74,20 91,74 136,110 34,22 27,98 93,167 35,84 16,257 48,302 -58,-16 -97,-61 -146,-91 -52,-7 -124,-3 -167,-102 -16,-128 -93,-164 -93,-253z"/>
   <path class="fil4" d="M6634 10654c-1,-84 -81,-144 -78,-242 24,65 81,95 166,96 21,2 81,76 147,101 47,34 24,140 54,211 44,74 112,118 150,178 38,38 48,77 72,115l-204 -120c-63,-42 -164,-43 -189,-124 -18,-98 -107,-124 -118,-215z"/>
   <path class="fil4" d="M6909 10625c-37,-104 -25,-169 -38,-254 73,88 195,154 237,231l110 201c31,50 -19,140 80,245 -82,-36 -146,-115 -218,-172 -16,-11 -8,45 -2,96l-125 -147c-43,-54 -17,-123 -44,-200z"/>
   <path class="fil4" d="M7004 10251c-8,-29 20,-103 15,-171 25,25 46,53 61,83 -45,248 123,471 356,481l49 119c-91,-49 -304,-122 -371,-188 -35,-52 -96,-91 -116,-136 -31,-48 16,-110 6,-188z"/>
   <path class="fil4" d="M7244 10798c-12,-49 -68,-107 -93,-169 82,52 265,124 352,168 133,218 294,361 478,544 6,41 30,128 48,172 -155,-110 -404,-401 -458,-538 -37,107 24,366 69,425 -48,-22 -90,-23 -123,-32 -38,-49 -84,-72 -115,-146l-129 -240c-24,-57 -8,-122 -29,-184z"/>
   <path class="fil4" d="M6902 11186c-13,-150 -215,-260 -156,-288 71,87 149,81 217,132 75,39 138,78 201,123 28,23 36,57 57,78 -51,27 23,133 65,174 37,38 127,77 152,120 -44,-7 -290,-71 -337,-125 -49,-111 -182,-122 -199,-214z"/>
   <path class="fil4" d="M6953 11332c6,-25 101,71 152,107 103,51 253,85 359,118 48,98 104,180 187,269 -85,-44 -246,-181 -273,-148 -8,95 139,274 78,250 -62,-62 -124,-71 -174,-181 -55,-141 -173,-167 -258,-281 -25,-43 -63,-84 -71,-134z"/>
   <path class="fil4" d="M7540 12019c-20,-110 -158,-290 -125,-309 16,-9 200,139 285,183 78,119 147,200 262,297 1,51 7,108 13,149 -194,-92 -290,-214 -435,-320z"/>
   <path class="fil4" d="M7525 12173c-60,-35 -124,-115 -148,-163l0 0 0 0c-6,-12 -9,-22 -9,-28 -21,-35 -23,-69 -34,-104 27,-3 96,66 147,95 42,33 17,58 52,74 54,32 107,99 166,132 89,83 186,146 278,189l70 232c-138,-20 -151,-143 -254,-166 -119,-15 -59,-102 -143,-117 -114,-24 -49,-120 -125,-144z"/>
   <path class="fil4" d="M12988 10994c-6,-28 13,-79 0,-77 -61,66 -133,123 -204,169 -39,44 -89,217 -204,305 -43,10 -130,24 -176,80 -28,55 -74,103 -98,140 135,-39 231,-85 339,-198 23,-18 4,51 -26,120 54,-126 221,-119 240,-278 0,-26 -87,5 -64,-11 71,-21 79,-87 118,-130 15,-45 49,-82 75,-120z"/>
   <path class="fil4" d="M13097 10183c13,-95 80,-204 142,-286 2,-66 -13,-138 -50,-181 -5,63 -59,83 -66,161 9,43 -130,137 -122,255 26,-29 48,-73 85,-86 -13,56 8,87 11,137z"/>
   <path class="fil4" d="M13317 10106c44,-45 68,-91 132,-127 0,-32 19,-64 0,-97 38,-30 68,-129 11,-276 -39,30 -71,94 -75,132 -38,22 -70,47 -87,80 -22,37 -41,73 -48,111 -66,72 -112,165 -141,276 -10,44 -14,89 3,133 14,45 0,71 0,107 37,-41 76,-62 110,-122 6,-26 -3,-52 18,-77 43,-36 52,-93 77,-140z"/>
   <path class="fil4" d="M13612 10132c13,-123 47,-159 34,-246 -54,38 -120,58 -163,113 -74,20 -91,74 -136,110 -34,22 -27,98 -93,167 -35,84 -17,257 -48,302 58,-16 97,-61 145,-91 53,-7 125,-3 167,-102 17,-128 94,-164 94,-253z"/>
   <path class="fil4" d="M13451 10654c1,-84 80,-144 78,-242 -25,65 -81,95 -166,96 -21,2 -81,76 -148,101 -46,34 -23,140 -53,211 -44,74 -112,118 -151,178 -37,38 -47,77 -71,115l204 -120c63,-42 164,-43 189,-124 18,-98 106,-124 118,-215z"/>
   <path class="fil4" d="M13176 10625c37,-104 25,-169 38,-254 -73,88 -195,154 -237,231l-110 201c-31,50 19,140 -80,245 82,-36 145,-115 218,-172 15,-11 7,45 2,96l125 -147c43,-54 17,-123 44,-200z"/>
   <path class="fil4" d="M13081 10251c7,-29 -21,-103 -15,-171 -26,25 -46,53 -61,83 45,248 -124,471 -356,481l-49 119c91,-49 303,-122 371,-188 34,-52 96,-91 116,-136 31,-48 -16,-110 -6,-188z"/>
   <path class="fil4" d="M12841 10798c12,-49 68,-107 92,-169 -81,52 -264,124 -352,168 -132,218 -293,361 -477,544 -6,41 -31,128 -48,172 155,-110 403,-401 458,-538 36,107 -25,366 -69,425 48,-22 89,-23 123,-32 38,-49 84,-72 115,-146l129 -240c24,-57 8,-122 29,-184z"/>
   <path class="fil4" d="M13183 11186c13,-150 215,-260 156,-288 -71,87 -149,81 -217,132 -75,39 -138,78 -201,123 -28,23 -37,57 -57,78 51,27 -23,133 -66,174 -37,38 -126,77 -151,120 44,-7 290,-71 337,-125 49,-111 182,-122 199,-214z"/>
   <path class="fil4" d="M13132 11332c-6,-25 -102,71 -152,107 -103,51 -254,85 -360,118 -47,98 -103,180 -186,269 84,-44 246,-181 273,-148 8,95 -140,274 -78,250 62,-62 123,-71 174,-181 55,-141 173,-167 258,-281 25,-43 62,-84 71,-134z"/>
   <path class="fil4" d="M12545 12019c19,-110 158,-290 125,-309 -17,-9 -201,139 -286,183 -77,119 -147,200 -262,297 0,51 -6,108 -12,149 194,-92 290,-214 435,-320z"/>
   <path class="fil4" d="M12560 12173c59,-35 124,-115 147,-163l0 0 0 0c6,-12 10,-22 10,-28 20,-35 22,-69 34,-104 -27,-3 -97,66 -147,95 -42,33 -17,58 -52,74 -54,32 -107,99 -167,132 -89,83 -185,146 -277,189l-70 232c138,-20 151,-143 254,-166 119,-15 58,-102 143,-117 113,-24 48,-120 125,-144z"/>
   <path class="fil4" d="M8297 10285l889 0c-41,6 -76,15 -90,31 -54,-28 -162,-15 -210,21 -59,44 -88,55 -176,75 -41,9 -120,62 -146,20 1,-4 8,-3 11,-1 48,38 179,-98 38,-104 -38,-1 -126,42 -123,99 1,33 -79,54 -119,43 -24,-7 -83,22 -16,67 11,7 28,10 48,10 -23,46 -56,63 -106,36l0 -297z"/>
   <path class="fil4" d="M8311 10835l33 -4 0 -8c0,-2 1,-4 2,-6 1,-1 3,-2 5,-3 5,-1 11,-3 17,-4l1 -17c0,-3 1,-5 2,-6 1,-2 3,-3 5,-3 18,-5 45,-9 64,-13l-1 44 18 -2 17 38 17 -3 0 -69 51 -13 1 21c20,-16 41,-29 63,-35l274 -45c22,-2 41,1 58,7 -43,-11 -121,9 -170,52l-4 187 22 -4c2,-36 4,-140 6,-176 38,-37 93,-55 166,-50l0 0 50 -8c15,-12 25,-31 47,-35l96 -15 13 -14 77 -12 13 10c37,-7 66,-7 68,19l186 -30 -2 -29c23,-9 46,-11 69,-7l3 34c15,2 13,10 16,15 9,-7 20,-12 31,-16 2,-1 4,-1 6,-2l-1 -33 11 -5c0,-11 -4,-11 -10,-8 4,-16 -11,-29 -25,-39 16,-1 35,4 44,17 15,-6 30,-8 45,-3 -15,1 -28,5 -35,13 6,4 9,9 8,13 -6,-6 -12,-8 -18,-6l-2 11 14 2 2 36c3,0 7,1 10,2 5,-10 6,-20 6,-31 9,-8 19,-8 30,-2 2,15 5,28 14,39l0 10 -16 1c15,13 28,29 39,54 5,12 10,25 13,39l2 5c11,-2 22,-5 32,-2 11,5 14,13 12,24l-19 7c4,17 -9,31 -21,33 -2,28 -10,55 -21,77 -6,16 -15,30 -25,39l51 3 77 95 19 137 -323 0 12 -95 -61 3 -10 14 -20 0 4 -41 -22 2 -5 56 27 0 -31 60 -235 0 0 -44 34 -21 -1 -34 208 -28 1 -22 -415 41 -27 -22 -100 17 0 55 -57 0 -197 -53 -95 13 0 96 -170 0c-11,-19 -21,-40 -30,-62 -23,-85 -36,-173 -43,-261zm1036 -127c0,2 0,4 0,6 -3,0 -5,1 -8,1 -3,0 -6,1 -8,1 0,-1 0,-2 0,-3 1,-2 3,-4 4,-6 2,-2 4,-4 5,-6 1,-1 1,-3 1,-4 0,-3 -1,-4 -3,-4 -3,1 -4,3 -4,6 0,1 0,2 1,3 -1,0 -2,0 -4,0 0,-1 0,-2 0,-3 0,-2 1,-4 2,-5 1,-2 3,-3 6,-3 3,0 4,0 6,1 2,1 2,3 2,5 0,1 0,2 -1,3 -1,1 -2,3 -3,4 -1,1 -2,2 -2,2 -1,1 -2,2 -2,3 -1,0 -1,0 -1,1 3,-1 6,-1 9,-2zm17 -20c0,4 0,8 0,12 0,4 0,8 0,12 -2,0 -4,1 -7,1 0,-3 0,-6 0,-9 0,-3 0,-6 0,-9 -1,1 -3,2 -4,2 0,-1 0,-2 0,-3 3,-1 5,-3 7,-6 1,0 3,0 4,0zm27 15c0,2 0,4 0,6 -3,0 -7,1 -10,1 -3,0 -6,1 -9,1 0,-1 0,-2 0,-3 2,-2 4,-4 5,-6 3,-3 4,-5 5,-6 1,-2 2,-4 2,-5 0,-3 -1,-4 -4,-4 -2,1 -4,3 -4,6 0,1 0,2 1,4 -1,0 -3,-1 -4,-1 0,-1 0,-2 0,-2 0,-3 0,-5 2,-6 1,-2 4,-3 7,-3 2,-1 5,0 6,1 2,1 3,2 3,5 0,1 -1,2 -1,3 -1,2 -3,3 -4,5 -1,1 -2,1 -2,2 -1,1 -2,2 -3,2 0,1 0,1 -1,1 3,0 7,-1 11,-1zm-68 -16l77 -12 0 41 -77 7 0 -36zm-855 507l41 0 0 41 -41 0 0 -41zm91 -5l-45 5 0 41 45 -46zm90 5l41 0 0 41 -41 0 0 -41zm91 -5l-45 5 0 41 45 -46zm90 5l41 0 0 41 -41 0 0 -41zm92 -5l-45 5 0 41 45 -46zm90 5l41 0 0 41 -41 0 0 -41zm91 -5l-45 5 0 41 45 -46zm90 5l41 0 0 41 -41 0 0 -41zm91 -5l-45 5 0 41 45 -46zm90 5l41 0 0 41 -41 0 0 -41zm91 -5l-45 5 0 41 45 -46zm90 5l41 0 0 41 -41 0 0 -41zm91 -5l-45 5 0 41 45 -46zm90 5l41 0 0 41 -41 0 0 -41zm92 -5l-45 5 0 41 45 -46zm-1098 -100c33,0 61,29 71,70l-14 0c-9,-31 -31,-53 -57,-53 -26,0 -48,22 -57,53l-13 0c9,-41 37,-70 70,-70zm5 26c23,0 42,18 50,44l-99 0c9,-26 27,-44 49,-44zm231 -31c35,0 64,32 73,76l-14 0c-8,-34 -31,-59 -59,-59 -27,0 -51,25 -59,59l-14 0c9,-44 38,-76 73,-76zm5 27c24,0 44,20 53,49l-105 0c9,-29 29,-49 52,-49zm146 -27c35,0 64,32 73,76l-14 0c-8,-34 -32,-59 -59,-59 -28,0 -51,25 -60,59l-13 0c9,-44 38,-76 73,-76zm5 27c24,0 44,20 52,49l-104 0c8,-29 28,-49 52,-49zm23 -542c36,29 133,-72 29,-76 -29,-2 -94,31 -93,73 1,24 -58,40 -88,32 -17,-5 -62,17 -12,50 29,19 119,1 147,-26 21,-19 86,3 114,-22 15,-14 60,-27 70,-13 23,33 180,35 174,-20l-1 -2c8,9 21,14 35,12 24,-4 44,-27 44,-51 0,-15 -7,-28 -19,-34 -33,-31 -129,-22 -168,7 -45,34 -66,41 -131,56 -31,8 -90,47 -109,16 1,-3 6,-3 8,-2zm-382 411l39 -4 0 -29c218,-25 437,-50 655,-74 19,36 38,72 57,108l-5 48 47 -2c6,0 5,9 0,10l-57 3 4 -57 -51 -99 -640 72 0 29 -49 5 0 -10zm-416 -150l20 -3c0,-1 1,-2 1,-3l0 -9 -16 3c-1,0 -2,1 -3,2 -1,0 -1,2 -1,3l-1 7zm24 -4l40 -6 0 -14 -39 8 -1 10c0,1 0,2 0,2zm44 -7l21 -3 0 -40 -59 11c-2,1 -3,1 -3,2 -1,1 -2,2 -2,4l0 16c14,-2 30,-5 43,-7l0 17zm191 26l-52 11 0 64 52 -7 0 -68z"/>
   <path class="fil4" d="M11008 10333c-62,12 -110,-52 -70,-53l849 0c-66,21 -78,122 -200,62 -44,26 -83,22 -119,0 -36,58 -87,66 -151,26 -5,-6 -43,51 -71,10 2,45 -51,84 -98,32 -2,22 -41,59 -81,31 -19,5 -62,-11 -41,-69 -19,6 -35,-20 -18,-39z"/>
   <polygon class="fil4" points="11772,10599 11572,10484 11581,10772 11617,10742 11772,10758 "/>
   <polygon class="fil4" points="11212,10860 11195,10840 11341,10735 11500,10854 11624,10763 11760,10864 11722,10866 11627,10794 11500,10890 11340,10767 "/>
   <path class="fil4" d="M11189 10823l-219 -313 581 -49 8 327 -222 -76 -148 111zm133 -270c16,-1 34,-2 51,-3 0,6 0,13 0,19 0,6 0,12 0,18 -17,1 -35,1 -51,2 0,-6 0,-12 0,-18 0,-6 0,-12 0,-18zm-201 10c13,-1 26,-1 39,-2 0,5 0,11 0,16 0,6 0,11 0,16 -13,1 -26,1 -39,2 0,-6 0,-11 0,-16 0,-5 0,-11 0,-16zm44 -2c13,-1 27,-2 41,-2 0,5 0,11 0,16 0,6 0,12 0,17 -14,1 -28,1 -41,1 0,-5 0,-11 0,-16 0,-5 0,-11 0,-16zm46 -3c14,0 29,-1 44,-2 0,6 0,12 0,17 0,6 0,12 0,18 -15,0 -30,1 -44,1 0,-6 0,-11 0,-17 0,-5 0,-11 0,-17zm-90 43c13,0 26,0 39,0 0,5 0,10 0,16 0,5 0,10 0,16 -13,0 -26,0 -39,0 0,-5 0,-11 0,-16 0,-5 0,-10 0,-16zm44 -1c13,0 27,0 41,-1 0,6 0,12 0,17 0,6 0,11 0,17 -14,0 -28,0 -41,0 0,-6 0,-11 0,-16 0,-6 0,-11 0,-17zm214 -50c19,-1 37,-2 56,-3 0,6 0,13 0,19 0,7 0,13 0,20 -19,0 -37,1 -56,1 0,-6 0,-12 0,-18 0,-7 0,-13 0,-19zm62 -3c20,-1 40,-2 61,-4 0,7 0,14 0,21 0,6 0,13 0,20 -21,0 -41,1 -61,1 0,-6 0,-12 0,-19 0,-6 0,-13 0,-19zm-119 50c16,-1 34,-1 51,-1 0,6 0,12 0,18 0,6 0,13 0,19 -17,0 -35,0 -51,0 0,-6 0,-12 0,-18 0,-6 0,-12 0,-18zm57 -2c19,0 37,0 56,-1 0,7 0,13 0,19 0,7 0,13 0,20 -19,0 -37,0 -56,0 0,-6 0,-13 0,-19 0,-6 0,-12 0,-19zm62 -1c20,0 40,-1 61,-1 0,6 0,13 0,20 0,6 0,13 0,20 -21,0 -41,0 -61,0 0,-7 0,-13 0,-20 0,-6 0,-13 0,-19zm-230 5c14,0 29,0 44,-1 0,6 0,12 0,18 0,5 0,11 0,17 -15,0 -30,0 -44,0 0,-6 0,-11 0,-17 0,-5 0,-11 0,-17z"/>
   <path class="fil4" d="M11518 10901c20,1 41,1 62,1 0,8 0,15 0,23 0,7 0,15 0,22 -21,-1 -42,-1 -62,-2 0,-7 0,-15 0,-22 0,-7 0,-14 0,-22zm-242 -2c15,0 31,0 47,0 0,7 0,13 0,20 0,6 0,13 0,19 -16,0 -32,-1 -47,-1 0,-7 0,-13 0,-19 0,-7 0,-13 0,-19zm52 0c17,0 34,1 51,1 0,6 0,13 0,20 0,7 0,13 0,20 -17,0 -34,-1 -51,-2 0,-6 0,-13 0,-19 0,-7 0,-13 0,-20zm56 1c18,0 36,0 54,0 0,7 0,14 0,21 0,7 0,14 0,21 -18,0 -36,-1 -54,-2 0,-6 0,-13 0,-20 0,-7 0,-13 0,-20zm-108 45c15,0 31,1 47,2 0,6 0,13 0,19 0,7 0,13 0,20 -16,-1 -32,-2 -47,-3 0,-7 0,-13 0,-19 0,-6 0,-13 0,-19zm52 2c17,1 34,1 51,2 0,7 0,13 0,20 0,7 0,14 0,20 -17,-1 -34,-2 -51,-3 0,-6 0,-13 0,-19 0,-7 0,-14 0,-20zm260 -45c22,0 44,1 67,1 0,8 0,15 0,23 0,8 0,16 0,24 -23,-1 -45,-2 -67,-3 0,-7 0,-15 0,-22 0,-8 0,-15 0,-23zm74 1c24,0 48,0 73,1 0,8 0,16 0,24 0,8 0,16 0,24 -25,0 -49,-1 -73,-2 0,-8 0,-16 0,-24 0,-7 0,-15 0,-23zm-144 51c20,1 41,2 62,3 0,7 0,15 0,22 0,8 0,15 0,23 -21,-1 -42,-3 -62,-4 0,-7 0,-14 0,-22 0,-7 0,-14 0,-22zm70 3c22,1 44,2 67,3 0,8 0,15 0,23 0,8 0,16 0,24 -23,-2 -45,-3 -67,-5 0,-7 0,-15 0,-22 0,-8 0,-15 0,-23zm74 3c24,1 48,2 73,3 0,8 0,16 0,24 0,9 0,17 0,25 -25,-2 -49,-3 -73,-5 0,-8 0,-16 0,-23 0,-8 0,-16 0,-24zm-278 -11c18,1 36,2 54,2 0,7 0,14 0,21 0,7 0,14 0,21 -18,-1 -36,-2 -54,-3 0,-7 0,-14 0,-21 0,-6 0,-13 0,-20z"/>
   <path class="fil4" d="M10524 9099c49,0 88,55 88,122 0,67 -39,121 -88,121 -49,0 -88,-54 -88,-121 0,-67 39,-122 88,-122zm-95 149c-19,2 -34,-2 -49,-9 1,12 -5,26 -8,40l1 35c24,-5 41,-19 73,-14l-17 -52zm-65 67c-11,4 -22,5 -33,3 0,-22 -5,-44 -1,-66 -3,-19 -2,-39 5,-62 -24,-31 -25,-61 1,-96 43,-2 84,28 97,78 -8,25 -8,44 -5,67 -20,1 -40,-1 -56,-16 0,18 -3,35 -8,50l0 42zm11 -241l-25 10c58,9 77,39 87,75 17,-47 49,-74 105,-67l-53 -38c-32,46 -70,49 -114,20zm75 -36c-8,19 -37,19 -47,4l-18 26c37,26 69,20 95,-17l-30 -13zm-59 -46l-4 8c-3,18 14,26 22,38 4,11 29,8 34,-1 5,-16 18,-30 15,-49l-5 -12c-1,-8 2,-16 -4,-25 -24,-6 -42,0 -58,11 -2,11 3,19 0,30zm-18 -18l11 14c2,-10 -3,-17 -1,-28 18,-18 41,-22 68,-16 10,8 9,19 9,29 5,-3 7,-6 6,-20 -1,-15 -7,-9 -11,-18 -24,-7 -50,-4 -79,4 -9,12 -2,23 -3,35zm81 -47c-18,-8 -45,-5 -75,2 6,-21 18,-41 44,-54 1,8 2,13 5,19 7,-6 12,-10 23,-9 -3,6 -8,15 -4,19 6,-3 17,-4 22,2 -10,5 -15,11 -15,21zm70 197c39,0 70,43 70,97 0,53 -31,96 -70,96 -39,0 -70,-43 -70,-96 0,-54 31,-97 70,-97z"/>
   <path class="fil4" d="M8876 8846c-215,-14 -416,-40 -589,-91l0 232c56,31 55,-31 82,-47 -41,-115 106,-141 126,-62 88,61 254,-21 381,-32z"/>
   <path class="fil2" d="M9303 8090c-11,-4 -24,-6 -24,-24 0,0 0,-4 0,-12l2 -14 71 -14c4,8 8,16 12,23 7,17 -5,24 -13,32l109 -21c-14,-9 -17,-11 -25,-25l-47 -75c5,-4 8,-10 8,-19 -9,-1 -19,-6 -27,-14l-31 -50c-6,-11 -7,-20 -3,-29l-104 21c7,6 10,15 9,27l-10 59c-5,11 -13,19 -20,22 4,9 8,14 14,15l-15 88c-3,15 -6,18 -13,31l107 -21zm-16 -103c2,-23 5,-47 7,-69 11,20 22,41 33,61l-40 8zm150 -155c9,4 16,16 18,26l5 38c-1,17 -7,30 -16,39 7,9 15,12 23,9l13 86c2,12 -2,25 -10,30l99 -14c-9,-3 -16,-15 -17,-26l-23 -154 20 -3c17,-3 35,0 38,21 2,12 -2,20 -13,24 -10,4 -19,1 -28,-10 -27,67 63,71 97,31 7,-10 11,-20 12,-30 3,-8 7,-16 13,-22 -5,-2 -10,-6 -14,-11 -9,-46 -42,-60 -85,-54l-118 18 -14 2zm239 -32c9,4 15,17 17,26l4 39c-2,16 -8,29 -17,38 6,10 14,13 22,10l10 87c2,11 -2,25 -10,30l99 -12c-10,-4 -16,-13 -18,-27l-9 -86c7,0 15,-4 20,-15 -10,-6 -19,-18 -26,-33l-4 -39c-2,-13 2,-23 10,-30l-98 12zm370 35c-5,-16 -2,-37 14,-46l-188 -3c-2,22 -17,42 -36,57 12,-5 29,-7 40,-7l83 1 -13 13c-13,8 -25,12 -38,12 -2,10 0,17 5,21l-84 86c3,18 1,39 -15,48l205 2c1,-22 17,-41 37,-56 -11,4 -23,7 -36,7l-106 -1 58 -59c9,6 18,4 27,-6 -3,-3 -6,-8 -8,-14l55 -55zm121 187c-10,-7 -23,-12 -19,-29 0,0 1,-4 3,-12l5 -14 71 1c3,10 5,17 8,26 3,18 -11,22 -20,28l111 2c-11,-12 -14,-14 -19,-29l-30 -84c5,-2 9,-7 12,-17 -10,-3 -18,-9 -25,-18l-20 -56c-3,-12 -2,-21 4,-29l-106 -1c5,8 6,17 3,28l-22 56c-8,10 -16,16 -25,18 2,9 6,14 12,17l-33 83c-7,14 -10,17 -20,28l110 2zm5 -105c6,-22 14,-45 22,-66 6,21 12,45 19,66l-41 0zm263 -21c9,-24 25,-35 49,-32 16,2 27,9 33,23 -5,12 -11,19 -18,22l97 12c-7,-5 -11,-13 -12,-26 -11,-53 -43,-77 -95,-83 -55,-7 -101,11 -120,64 -8,14 -16,23 -25,29 3,8 8,12 15,14 -2,26 0,48 9,66 19,43 50,54 95,60 52,7 91,-9 111,-63 5,-9 11,-15 17,-18l-46 -5c-18,-3 -31,6 -39,16 -10,14 -24,21 -41,18 -37,-4 -39,-34 -36,-64 8,0 14,-3 20,-11 -6,-4 -10,-12 -14,-22zm219 165c15,11 36,20 64,25 28,5 51,4 70,-1 39,-12 62,-49 69,-88 6,0 12,-3 18,-9 -7,-9 -13,-19 -14,-31 -1,-34 -16,-61 -43,-81 -14,-10 -33,-17 -58,-21 -25,-5 -46,-5 -62,-1 -32,10 -55,30 -69,62 -7,11 -15,20 -24,23 3,9 7,13 13,15 -6,40 3,82 36,107zm58 -148c22,-18 58,-11 73,13 3,7 6,15 6,25 -5,7 -12,14 -20,18 4,9 10,15 17,17 -8,32 -24,58 -61,51 -37,-6 -45,-36 -39,-69 8,1 14,-3 21,-10 -6,-6 -10,-14 -13,-24 4,-10 10,-16 16,-21z"/>
   <path class="fil4" d="M11994 8458c-6,-16 -14,-34 -23,-54 -48,17 -97,34 -148,50 51,175 42,304 253,308 -23,-139 -30,-170 -82,-304zm-314 -411c-30,-15 -61,-26 -93,-28 11,18 18,35 25,53 23,-8 45,-16 68,-25zm379 -766c-7,-13 -14,-27 -21,-39 16,-15 28,-31 34,-49 81,35 48,2 171,69 60,33 84,55 140,97 84,64 161,123 345,86 -121,-160 -365,-337 -523,-383 29,49 54,92 39,136 -64,13 -110,-6 -171,-6 3,-10 5,-21 6,-32 36,7 79,11 133,9 -19,-69 -89,-147 -169,-212 6,-19 10,-37 12,-52 46,13 106,19 192,6 -68,-152 -233,-207 -333,-281 -9,-81 -63,-132 -186,-138 -16,-107 -82,-165 -242,-128 123,-165 333,-178 639,-25 688,455 1060,1121 1239,1916 88,515 37,1020 -129,1539 6,24 10,49 10,77 16,-45 37,-78 67,-109 508,-1585 125,-3497 -1528,-3807 -438,-17 -568,252 -380,496 766,782 146,931 -164,999 -188,56 -261,391 -626,213l6 39c237,44 454,108 578,199 17,-10 34,-21 51,-33 53,156 152,192 246,242 23,-7 47,-15 70,-22 -32,-78 -90,-165 -148,-212 11,6 23,12 38,21 36,24 51,41 81,62 43,30 163,54 208,45 -19,-85 -128,-181 -222,-241 4,-10 7,-21 9,-33 126,79 171,154 347,136 -31,-68 -105,-149 -186,-214 11,-6 22,-13 33,-21 40,24 88,37 182,15 -22,-49 -55,-96 -94,-138 20,-5 39,-12 55,-20 20,2 52,-5 121,-23 -16,-23 -30,-44 -43,-63 6,-17 10,-35 10,-56l152 84c54,31 108,64 163,106 108,83 158,154 424,78 -28,-18 -53,-24 -86,-42 -67,-36 -150,-109 -212,-158 -221,-173 -196,-117 -303,-182 -18,49 72,83 -138,92 0,-10 -1,-20 -3,-30 28,0 61,-5 106,-13zm-1551 402c-22,-29 -27,-65 -50,-95 -2,29 -10,57 -23,84 24,4 49,7 73,11zm-228 -29l-5 -9 -1 8 6 1zm-487 -1l-4 -8 -5 9 9 -1zm-337 48c-49,-49 -90,-116 -118,-190 7,77 20,141 39,195 -282,62 -389,-208 -552,-256 -310,-68 -930,-217 -164,-999 189,-244 58,-513 -379,-496 -1649,309 -2035,2211 -1533,3793 36,32 65,77 83,129 1,-21 3,-41 6,-60 -171,-525 -226,-1041 -137,-1562 179,-795 551,-1461 1240,-1916 305,-153 516,-140 638,25 -160,-37 -226,21 -242,128 -123,6 -177,57 -186,138 -99,74 -265,129 -332,281 85,13 145,7 191,-6 2,15 6,33 12,52 -80,65 -150,143 -169,212 54,2 97,-2 133,-9 1,11 3,22 6,32 -61,0 -107,19 -171,6 -15,-44 10,-87 39,-136 -158,46 -402,223 -523,383 185,37 261,-22 346,-86 55,-42 79,-64 139,-97 123,-67 91,-34 171,-69 6,18 18,34 35,49 -8,12 -15,26 -21,39 44,8 77,13 105,13 -1,10 -2,20 -3,30 -210,-9 -120,-43 -138,-92 -107,65 -82,9 -303,182 -62,49 -144,122 -212,158 -33,18 -58,24 -85,42 265,76 315,5 423,-78 55,-42 110,-75 163,-106l152 -84c1,21 4,39 10,56 -13,19 -27,40 -42,63 68,18 100,25 121,23 16,8 34,15 54,20 -39,42 -72,89 -94,138 94,22 142,9 183,-15 10,8 21,15 32,21 -81,65 -155,146 -186,214 176,18 221,-57 347,-136 3,12 6,23 9,33 -94,60 -203,156 -221,241 44,9 164,-15 207,-45 31,-21 45,-38 81,-62 15,-9 27,-15 38,-21 -57,46 -115,132 -147,209 24,8 48,16 72,23 93,-49 190,-86 244,-240 8,18 21,33 36,47 121,-99 351,-168 603,-214zm3092 884l-2 -3 -21 -35c-32,11 -64,24 -97,37l13 22c34,-11 70,-19 107,-21zm-203 -284c-9,-11 -17,-19 -25,-27 -33,12 -68,25 -104,38 10,10 20,20 31,30 31,-14 64,-28 98,-41zm412 1069c14,51 27,101 39,151l2 12c19,32 30,69 29,114 0,6 -1,12 -2,18 7,28 16,53 28,70 39,55 105,121 181,129 -49,-230 -72,-345 -136,-527 -38,29 -89,40 -141,33zm-1320 -1244c-38,-22 -85,-49 -116,-48 16,18 32,40 49,64 22,-4 44,-10 67,-16zm137 395l12 25c21,43 38,87 54,128 61,-14 123,-31 184,-50l0 290c25,7 54,11 88,9 -62,-169 -77,-311 -127,-457 -68,21 -139,40 -211,55zm785 2224c6,-20 12,-40 16,-61 8,-48 15,-86 20,-120 -15,-7 -30,-14 -46,-21 10,68 15,135 10,202zm-75 -1430c-48,-179 -107,-354 -175,-518 -200,-15 -109,-31 -210,-47 116,331 180,482 229,719l156 -154zm-121 354c8,51 15,107 23,168l6 56c34,-40 76,-81 129,-123 -39,-44 -105,-67 -158,-101zm475 688l-1 -42c-12,0 -24,-1 -36,-3 -31,-73 -45,-113 -12,-188 8,-19 19,-36 31,-51 -2,-20 -3,-36 -5,-48l-4 -33c-51,46 -103,92 -144,146 -5,8 -10,17 -13,26 0,32 0,69 1,100 16,37 50,68 104,86 29,7 55,9 79,7zm-204 -1191c-10,-29 -19,-58 -29,-87 -35,-8 -71,-23 -108,-49 -72,-42 -152,-187 -25,-306l-14 -33 -3 -9c-46,38 -80,85 -92,145 60,132 112,290 155,454l116 -115zm-289 -618c-21,-5 -46,-8 -78,-10 47,159 9,102 82,257l8 16 -12 -263zm139 112l15 35c29,-31 65,-56 105,-74l-13 -21c-38,17 -75,37 -107,60zm162 424l17 52 34 -33c-43,199 136,256 247,363 -9,-35 -18,-70 -28,-105 -34,-11 -67,-29 -94,-55 -80,-73 -90,-130 -91,-229 -28,6 -56,9 -85,7zm201 875c3,24 5,53 8,81 23,-17 49,-27 75,-27l-1 -1c38,1 72,8 101,21 -2,-88 -11,-184 -26,-283 -32,85 -92,149 -157,209zm127 322l3 4c4,-5 7,-10 10,-14 -4,4 -9,7 -13,10zm-587 -1913c-7,-12 -15,-24 -23,-36 -50,19 -103,39 -158,60 18,36 33,71 46,104 23,6 56,15 91,22l-6 -130c15,-6 32,-13 50,-20zm-366 -374c-15,-10 -28,-18 -41,-26 0,18 2,28 0,41l41 -15zm49 -219c106,183 13,124 -138,115 17,19 84,61 125,89 73,-28 145,-57 214,-81 -78,-59 -153,-106 -201,-123zm1259 1721c-45,-200 -107,-405 -195,-599l40 229c-55,-82 -109,-113 -164,-118l5 12c25,11 49,26 70,46 77,71 93,174 41,242 26,82 67,177 203,188zm-330 -857c-37,-63 -71,-114 -105,-159 -36,18 -82,36 -133,54 10,16 21,33 31,49 74,2 147,20 207,56zm-311 -386l-24 -24c-33,9 -70,20 -108,33 8,8 16,17 24,26 36,-14 72,-26 108,-35zm628 622c-73,-220 -187,-450 -364,-629 4,30 7,61 7,94 5,18 6,40 6,64 -2,23 -18,43 -45,60 64,90 112,174 158,241 9,11 17,22 25,34 59,80 121,132 213,136zm-608 -655l24 22c74,-14 140,-13 183,20 -44,-51 -115,-59 -207,-42zm-556 -554c-48,28 -107,21 -161,23 63,47 154,78 317,196 65,-24 128,-43 185,-56 -11,-11 -23,-22 -35,-33 -65,-60 -180,-154 -259,-193 -35,-17 -58,-20 -88,-37l41 100zm1397 758c-77,-147 -270,-326 -393,-417 -74,-55 -149,-111 -222,-156l-174 -104c-14,-7 -18,-10 -31,-16l-36 -15c41,45 89,52 124,98l-100 27c25,13 48,29 70,48l145 94c68,53 129,104 195,167 182,178 172,297 422,274zm-168 164c-65,-207 -300,-464 -524,-618 39,58 68,131 85,214 62,58 124,133 160,181 43,57 69,105 109,164 34,50 108,66 170,59zm-1302 -1072c45,29 114,46 175,80 152,84 211,186 291,205 48,11 150,17 202,-2 -78,-41 -187,-143 -268,-211 -53,-44 -224,-165 -282,-176l54 71 -172 33zm1322 556c-51,-162 -132,-248 -265,-320 -280,-150 -197,-92 -417,-76 42,34 119,68 179,104 187,113 357,280 503,292zm-408 -603c-121,29 -154,12 -252,12 43,38 95,73 148,91 80,27 35,-1 63,41 42,63 252,117 389,120 -52,-99 -115,-169 -193,-240 -50,-45 -164,-167 -247,-139l92 115zm64 -194c-118,-46 -234,-160 -353,-239 -244,-161 -201,-94 -305,-86 -37,2 -78,-5 -112,-5 87,80 52,47 150,87 130,52 339,190 427,291 86,-18 117,-20 193,-48zm-35 -128c-116,-158 -278,-276 -463,-357 -89,-40 -65,-52 -198,-42 154,157 88,128 237,187 48,20 45,21 82,45 136,89 186,163 342,167zm-523 -450c-72,-92 -307,-206 -439,-206 66,39 92,86 90,139l132 65c53,32 135,27 217,2zm-106 -156c-54,-59 -262,-209 -483,-183 47,41 54,78 43,115 157,-43 354,76 440,68zm-4320 0c53,-59 261,-209 482,-183 -46,41 -54,78 -42,115 -158,-43 -355,76 -440,68zm-107 156c73,-92 308,-206 439,-206 -66,39 -92,86 -90,139l-131 65c-53,32 -136,27 -218,2zm-523 450c117,-158 278,-276 463,-357 89,-40 65,-52 198,-42 -154,157 -88,128 -236,187 -49,20 -46,21 -82,45 -136,89 -187,163 -343,167zm-35 128c118,-46 234,-160 353,-239 244,-161 201,-94 305,-86 38,2 78,-5 113,-5 -87,80 -53,47 -151,87 -129,52 -339,190 -426,291 -87,-18 -118,-20 -194,-48zm978 241c-45,29 -114,46 -174,80 -152,84 -212,186 -292,205 -48,11 -150,17 -202,-2 79,-41 187,-143 268,-211 53,-44 224,-165 282,-176l-53 71 171 33zm-73 150c48,28 107,21 162,23 -64,47 -154,78 -315,194 -66,-23 -129,-42 -187,-55 11,-11 22,-21 34,-32 65,-60 180,-154 259,-193 36,-17 59,-20 88,-37l-41 100zm82 109c-106,183 -13,124 138,115 -16,19 -81,59 -122,88 -74,-29 -146,-57 -214,-82 77,-58 151,-104 198,-121zm-315 590c7,-12 14,-24 22,-35 51,19 104,39 158,59 -18,37 -34,73 -47,107 -21,6 -51,14 -84,21l6 -129c-16,-6 -35,-14 -55,-23zm367 -373c13,-9 26,-17 38,-24 1,17 -1,26 0,38l-38 -14zm-176 466c7,-17 15,-36 25,-56 47,17 96,34 147,50 -52,176 -42,306 -254,310 23,-139 30,-170 82,-304zm317 -412c29,-15 59,-25 90,-27 -10,17 -17,34 -24,50 -22,-7 -44,-15 -66,-23zm243 79c37,-22 83,-48 113,-47 -15,18 -31,39 -47,63 -22,-5 -44,-10 -66,-16zm-139 394l-13 27c-26,55 -47,110 -67,161 -56,-13 -113,-29 -169,-47l0 253c-26,8 -55,12 -89,10 61,-170 77,-312 127,-459 68,21 139,40 211,55zm-1220 -1050c121,29 155,12 252,12 -43,38 -95,73 -148,91 -80,27 -35,-1 -63,41 -42,63 -252,117 -389,120 52,-99 115,-169 193,-240 50,-45 164,-167 247,-139l-92 115zm-408 603c52,-162 132,-248 265,-320 281,-150 198,-92 417,-76 -42,34 -119,68 -179,104 -187,113 -357,280 -503,292zm-148 352c77,-147 270,-326 393,-417 75,-55 149,-111 222,-156l175 -104c14,-7 17,-10 30,-16l36 -15c-41,45 -89,52 -124,98l103 28 -217 141c-69,53 -130,104 -196,167 -182,178 -172,297 -422,274zm168 164c67,-212 310,-475 538,-628 -40,58 -71,131 -89,216 -65,58 -132,139 -170,189 -43,57 -68,105 -108,164 -35,50 -108,66 -171,59zm65 287c74,-224 191,-458 373,-638 -5,33 -8,67 -9,103 -4,18 -6,40 -5,64 1,22 16,40 39,57 -158,223 -221,405 -398,414zm609 -656l-24 22c-71,-13 -134,-11 -176,21 43,-50 111,-59 200,-43zm-621 1277c46,-209 112,-423 206,-625l-44 255c52,-78 103,-110 156,-117l-7 16c-21,10 -42,24 -60,41 -75,68 -92,167 -47,235 -26,83 -65,184 -204,195zm325 -850c40,-68 75,-121 111,-169 35,19 82,36 132,55 -10,17 -21,34 -32,52 -76,2 -151,23 -211,62zm317 -395l23 -23c34,8 71,19 109,32 -8,8 -16,17 -24,26 -36,-14 -73,-26 -108,-35zm-61 333l1 -2 23 -37c31,11 64,23 96,36l-13 23c-34,-11 -71,-18 -107,-20zm204 -285c9,-11 17,-20 25,-27 34,12 68,25 105,38 -10,10 -21,19 -32,30 -31,-14 -64,-28 -98,-41zm-414 1072c-14,50 -27,101 -38,150 -3,11 -6,24 -8,37 -10,25 -16,53 -16,85 -9,37 -19,71 -34,92 -38,55 -104,121 -180,129 49,-232 72,-347 137,-532 37,31 87,44 139,39zm475 -715l-14 34c-30,-31 -66,-54 -106,-72l13 -21c38,18 74,37 107,59zm-164 429l-15 46 -29 -28c45,206 -147,260 -257,373 10,-38 20,-75 31,-113 36,-10 72,-29 102,-57 80,-73 89,-130 91,-229 25,5 51,8 77,8zm-201 868c-2,24 -4,53 -7,82 -21,-14 -45,-22 -68,-22l1 -1c-42,1 -78,10 -108,25 1,-94 10,-196 28,-301 29,89 89,155 154,217zm-124 325l-2 3 -7 -10c3,2 6,5 9,7zm133 78l1 -41c14,0 29,0 43,-3 32,-73 46,-113 12,-188 -9,-22 -22,-42 -37,-58 1,-17 3,-31 4,-41l5 -39c53,48 108,96 151,152l5 9c0,41 1,93 -1,132 -18,30 -50,56 -97,71 -31,7 -60,9 -86,6zm206 -1196c9,-26 17,-53 26,-80 38,-7 76,-22 117,-50 72,-42 153,-191 19,-311l12 -28 5 -14c46,37 81,82 95,139 -61,133 -114,293 -158,459l-116 -115zm295 -614c19,-4 42,-6 70,-8 -46,158 -9,103 -81,256l11 -248zm-210 2248l-2 1c-3,-38 -18,-73 -25,-111 -9,-47 -15,-84 -21,-118 18,-6 36,-14 54,-23 -13,84 -17,168 -6,251zm65 -1485c48,-177 106,-350 173,-512 200,-15 109,-31 210,-47 -114,328 -178,480 -228,713l-155 -154zm118 365c-7,50 -14,104 -22,163l-5 48c-32,-37 -72,-76 -122,-115 37,-42 98,-65 149,-96z"/>
   <path class="fil5" d="M19257 8113l-771 -2309 -1885 0 915 2738c593,-204 1178,-346 1741,-429z"/>
  </g>
 </g>
</svg>
